/* XPM */
static char *_2[] = {
/* columns rows colors chars-per-pixel */
"32 32 7 1 ",
"  c #2F2F2E",
". c #5A5A59",
"X c #646463",
"o c #676767",
"O c gray43",
"+ c gray54",
"@ c None",
/* pixels */
"@@@@@@@@ ++X++++X               ",
"@@@@@@@@ ++X++++X               ",
"@@@@@@@@ ++X++++X               ",
"@@@@@@@@ ++XXXXXX               ",
"@@@@@@@@ ++X++++X               ",
"@@@@@@@@ ++X+++OX               ",
"@@@@@@@@ ++X+++OX               ",
"@@@@@@@@ ++X++++X               ",
"@@@@@@@@ ++X++++X               ",
"@@@@@@@@ ++X++++X               ",
"@@@@@@@@ ++XXXXXX               ",
"@@@@@@@@ ++X+++OX               ",
"@@@@@@@@ ++X++++X               ",
"@@@@@@@@ ++X++++X               ",
"@@@@@@@@ ++X++++X               ",
"@@@@@@@@ ++XO+++X               ",
"@@@@@@@@ ++X++++X               ",
"@@@@@@@@ ++XXXXXX               ",
"@@@@@@@@ ++X++++X               ",
"@@@@@@@@ ++X++++XXX XXXXXXX XXXX",
"@@@@@@@@ ++X+OO++++X+++++++X+OO+",
"@@@@@@@@ ++X+OO++++X+++++++X+OO+",
"@@@@@@@@ ++X+++++++X+++++++X++++",
"@@@@@@@@ ++.OOOOOOO.OOOOOOO.OOOO",
"@@@@@@@@ ++.OOOOOOO.OOOOOOO.OOOO",
"@@@@@@@@ ++.ooooooo.ooooooo.oooo",
"@@@@@@@@ ++.....................",
"@@@@@@@@ ++.++++.+++++.+++++.+++",
"@@@@@@@@ ++.OOOO.OOOOO.OOOOO.OOO",
"@@@@@@@@ ++.OOOO.OOOOO.OOOOO.OOO",
"@@@@@@@@ ++.oooo.ooooo.ooooo.ooo",
"@@@@@@@@ ++....................."
};
