/* XPM */
static char *_2[] = {
/* columns rows colors chars-per-pixel */
"32 32 6 1 ",
"  c #2F2F2E",
". c #5A5A59",
"X c #676767",
"o c gray43",
"O c gray54",
"+ c None",
/* pixels */
".OOOOO.OOOOOO.OOOOOO.OO ++++++++",
".ooooo.oooooo.oooooo.OO ++++++++",
".ooooo.oooooo.oooooo.OO ++++++++",
".XXXXX.XXXXXX.XXXXXX.OO ++++++++",
".....................OO ++++++++",
"OOO.OOOOOO.OOOOOO.OO.OO ++++++++",
"ooo.oooooo.oooooo.oo.OO ++++++++",
"ooo.oooooo.oooooo.oo.OO ++++++++",
"XXX.XXXXXX.XXXXXX.XX.OO ++++++++",
".....................OO ++++++++",
"OOOOOO.OOOOOOO.OOOOO.OO ++++++++",
"oooooo.ooooooo.ooooo.OO ++++++++",
"oooooo.ooooooo.ooooo.OO ++++++++",
"XXXXXX.XXXXXXX.XXXXX.OO ++++++++",
".....................OO ++++++++",
"OOO.OOOOOO.OOOOOO.OO.OO ++++++++",
"ooo.oooooo.oooooo.oo.OO ++++++++",
"ooo.oooooo.oooooo.oo.OO ++++++++",
"XXX.XXXXXX.XXXXXX.XX.OO ++++++++",
".....................OO ++++++++",
"OOOOOOOOOOOOOOOOOOOOOOO ++++++++",
"OOOOOOOOOOOOOOOOOOOOOOO ++++++++",
"ooooooooooooooooooooooo ++++++++",
"XXXXXXXXXXXXXXXXXXXXXXX ++++++++",
"XXXXXXXXXXXXXXXXXXXXXXX ++++++++",
"XXXXXXXXXXXXXXXXXXXXXXX ++++++++",
"XXXXXXXXXXXXXXXXXXXXXXX ++++++++",
"                        ++++++++",
"++++++++++++++++++++++++++++++++",
"++++++++++++++++++++++++++++++++",
"++++++++++++++++++++++++++++++++",
"++++++++++++++++++++++++++++++++"
};
