/* XPM */
static char *_1[] = {
/* columns rows colors chars-per-pixel */
"32 32 7 1 ",
"  c #2F2F2E",
". c #5A5A59",
"X c #646463",
"o c #676767",
"O c gray43",
"+ c gray54",
"@ c None",
/* pixels */
"               XXXXXX+++++.+++++",
"               X++++XOOOOO.OOOOO",
"               XO+++XOOOOO.OOOOO",
"               XO+++Xooooo.ooooo",
"               X++++X...........",
"               X+O++X+.++++++.++",
"               X++++XO.OOOOOO.OO",
"               XXXXXXO.OOOOOO.OO",
"               X+++OXo.oooooo.oo",
"               X++++X...........",
"               X++++X+++++.++++.",
"               XXXXXXOOOOO.OOOO.",
"               X+OO+XOOOOO.OOOO.",
"               X+OO+Xooooo.oooo.",
"               X++++X...........",
"               X++++X+.++++++.++",
"               X++++XO.OOOOOO.OO",
"               XXXXXXO.OOOOOO.OO",
"               XO++OXo.oooooo.oo",
"               XO+++X...........",
"               X++++X+++++++++++",
"               X++++X+++++++++++",
"               X++++X++OOOOOOOOO",
"               XXXXXX++ooooooooo",
"               X+OO+X++ooooooooo",
"               X+OO+X++ooooooooo",
"               X++++X++ooooooooo",
"               X++++X++         ",
"               XXXXXX++ @@@@@@@@",
"               X+O++X++ @@@@@@@@",
"               X++++X++ @@@@@@@@",
"               X++++X++ @@@@@@@@"
};
