/* XPM */
static char *_4[] = {
/* columns rows colors chars-per-pixel */
"32 32 7 1 ",
"  c #2F2F2E",
". c #646463",
"X c gray54",
"o c gray43",
"O c #5A5A59",
"+ c #676767",
"@ c white",
/* pixels */
"                                ",
"                                ",
"                                ",
"                                ",
"                                ",
"                                ",
"                                ",
"                                ",
"                                ",
"                                ",
"                                ",
"                                ",
"                                ",
"                                ",
"                                ",
"                                ",
"                                ",
"                                ",
"                                ",
".... ....... ......       .. ...",
"XXXX.XXXXXXX.XXXXXX...   .XX.XXX",
"XXXX.XXXXXXX.XXXXXXX.X...XXX.XoX",
"XXoX.XXXXXXX.XXXXXXX.XXXXXXX.XXX",
"ooooOoooooooOoooooooOoooooooOooo",
"ooooOoooooooOoooooooOoooooooOooo",
"++++O+++++++O+++++++O+++++++O+++",
"OOOOOOOOOOOOOOOOOOOOOOOOOOOOOOOO",
"XXXOXXXXXOXXOOOOXXXXXXXOXXXOOXXX",
"oooOoooooOoooOOOoooooooOoooOOooo",
"oooOoooooOoooooOoooooooOooOOOooo",
"+++O+++++O+++++O+++++++O++OOO+++",
"OOOOOOOOOOOOOOOOOOOOOOOOOOOOOOOO"
};
