/* XPM */
static char *_5[] = {
/* columns rows colors chars-per-pixel */
"32 32 7 1 ",
"  c #2F2F2E",
". c #646463",
"X c gray54",
"o c gray43",
"O c #5A5A59",
"+ c #676767",
"@ c white",
/* pixels */
"                                ",
"                                ",
"                                ",
"                                ",
"                                ",
"                                ",
"                                ",
"                                ",
"                                ",
"                                ",
"                                ",
"                                ",
"                                ",
"                                ",
"                                ",
"                                ",
"                                ",
"                                ",
"                                ",
".... ....... ....... ....... ...",
"XXXX.XXXXXXX.XXXXXXX.XXXXXXX.XXX",
"XXoX.XXXXXXX.XoXXXXX.XXXXXXo.XXX",
"XXXX.XXXXXXX.XXXXXXX.XXXXXXX.XXX",
"ooooOoooooooOoooooooOoooooooOooo",
"ooooOoooooooOoooooooOoooooooOooo",
"++++O+++++++O+++++++O+++++++O+++",
"OOOOOOOOOOOOOOOOOOOOOOOOOOOOOOOO",
"XXXOXXXXXOXXXXXOXXXXXXXOXXXXOXXX",
"oooOoooooOoooooOoooooooOooooOooo",
"oooOoooooOoooooOooooooOOooooOooo",
"+++O+++++O+++++O+++++O+O++++O+++",
"OOOOOOOOOOOOOOOOOOOOOOOOOOOOOOOO"
};
