/* XPM */
static char *_6[] = {
/* columns rows colors chars-per-pixel */
"32 32 8 1 ",
"  c #2F2F2E",
". c #646463",
"X c gray54",
"o c gray43",
"O c #5A5A59",
"+ c #676767",
"@ c #454544",
"# c white",
/* pixels */
"                                ",
"                                ",
"                                ",
"                                ",
"                                ",
"                                ",
"                                ",
"                                ",
"                                ",
"                                ",
"                                ",
"                                ",
"                                ",
"                                ",
"                                ",
"                                ",
"                                ",
"                                ",
"                                ",
".... ....... ....... ....... ...",
"XXXX.XXXXXXX.XXXXXXX.XXXXXXX.XXX",
"XXXX.XXXXXXX.XXXXXXX.XXXX.XX.XoX",
"XXXX.XXXXXXX.XXXXXXX.XXXXX.X.XXX",
"ooooOoooooooOoooooooOoooooooOooo",
"ooooOoooooooOoooooooOoooooooOooo",
"++++O+++++++O+++++++O+++++++O+++",
"OOOOOOOOOOOOOOOOOOOOOOOOOOOOOOOO",
"XXXOXXXXXOXXXXXOXXXXXXXOXXXXOXXX",
"oooOoooooOoooooOoooooooOooooOooo",
"oooOoooooOoooooOoOoOOooOooooOooo",
"+++O+++++O+++++O+++OO++O++++O+++",
"OOOOOOOOOOOOOOOO@@OOOOOOOOOOOOOO"
};
