/* XPM */
static char *_9[] = {
/* columns rows colors chars-per-pixel */
"32 32 13 1 ",
"  c #2F2F2E",
". c #828281",
"X c gray54",
"o c gray43",
"O c #646463",
"+ c #595958",
"@ c gray47",
"# c #5A5A59",
"$ c gray38",
"% c #676767",
"& c gray36",
"* c #515150",
"= c white",
/* pixels */
"                                ",
"                                ",
"                                ",
"                                ",
"                                ",
"                                ",
"                                ",
"                                ",
"                                ",
"                                ",
"                                ",
"                                ",
"                                ",
"                                ",
"                                ",
"                                ",
"                                ",
"        ................        ",
"       .XXXXXoXXXXXXXXXX.       ",
"OOOO ++.XXXXXXXXXXXXXooX.++O OOO",
"oXXXO@@.XXXXXXXXXXXXXooX.@@XOXXX",
"XXXXO@@.XXXXXXXXXXXXXXXX.@@XOXXX",
"XXXXO@@.XXXXXXXXXXXXXXXX.@@XOXXX",
"oooo#$$.XXXXXXXoXXXXXXXX.$$o#ooo",
"oooo#$$.XXXooXXXXXXXXXXX.$$o#ooo",
"%%%%#&&.XXXooXXXXXXoXXXX.&&%#%%%",
"#####**.XXXXXXXXXXXXXXXX.**#####",
"XXX#X@@o.XXXXXXXXXXXXXXo.@@X#XXX",
"ooo#o$$oooooooooooooooooo$$o#ooo",
"ooo#o$$%oooooooooooooooo%$$o#ooo",
"%%%#%&&#%%%%%%%%%%%%%%%%#&&%#%%%",
"#####**##################**#####"
};
