/* XPM */
static char *_0[] = {
/* columns rows colors chars-per-pixel */
"32 32 7 1 ",
"  c #2F2F2E",
". c #646463",
"X c gray54",
"o c gray43",
"O c #5A5A59",
"+ c #676767",
"@ c white",
/* pixels */
"                                ",
"                                ",
"                                ",
"                                ",
"                                ",
"                                ",
"                                ",
"                                ",
"                                ",
"                                ",
"                                ",
"                                ",
"                                ",
"                                ",
"                                ",
"                                ",
"                                ",
"                                ",
"                                ",
".... ....... ....... ....... ...",
"XXXX.XXXXoXX.XXXXXXX.XoXXXXX.XXX",
"XXXX.XXXXXXX.XXXXXXX.XXoXXXX.XXX",
"XoXX.XXooXXX.XXXooXX.XXXXXXX.XXX",
"ooooOoooooooOoooooooOoooooooOooo",
"ooooOoooooooOoooooooOoooooooOooo",
"++++O+++++++O+++++++O+++++++O+++",
"OOOOOOOOOOOOOOOOOOOOOOOOOOOOOOOO",
"XXXOXXXXXOXXXXXOXXXXXXXOXXXXOXXX",
"oooOoooooOoooooOoooooooOooooOooo",
"oooOoooooOoooooOoooooooOooooOooo",
"+++O+++++O+++++O++++  +O++++O+++",
"OOOOOOOOOOOOOOOOOO       OOOOOOO"
};
