/* XPM */
static char *_2[] = {
/* columns rows colors chars-per-pixel */
"32 32 6 1 ",
"  c #2F2F2E",
". c #5A5A59",
"X c #676767",
"o c gray43",
"O c gray54",
"+ c None",
/* pixels */
"++++++++ OO.OOOOOO.OOOOOO.OOOOOO",
"++++++++ OO.oooooo.oooooo.oooooo",
"++++++++ OO.oooooo.oooooo.oooooo",
"++++++++ OO.XXXXXX.XXXXXX.XXXXXX",
"++++++++ OO.....................",
"++++++++ OO.OO.OOOOOO.OOOOOO.OOO",
"++++++++ OO.oo.oooooo.oooooo.ooo",
"++++++++ OO.oo.oooooo.oooooo.ooo",
"++++++++ OO.XX.XXXXXX.XXXXXX.XXX",
"++++++++ OO.....................",
"++++++++ OO.OOOOO.OOOOOOO.OOOOO.",
"++++++++ OO.ooooo.ooooooo.ooooo.",
"++++++++ OO.ooooo.ooooooo.ooooo.",
"++++++++ OO.XXXXX.XXXXXXX.XXXXX.",
"++++++++ OO.....................",
"++++++++ OO.OO.OOOOOO.OOOOOO.OOO",
"++++++++ OO.oo.oooooo.oooooo.ooo",
"++++++++ OO.oo.oooooo.oooooo.ooo",
"++++++++ OO.XX.XXXXXX.XXXXXX.XXX",
"++++++++ OO.....................",
"++++++++ OOOOOOOOOOOOOOOOOOOOOOO",
"++++++++ OOOOOOOOOOOOOOOOOOOOOOO",
"++++++++ ooooooooooooooooooooooo",
"++++++++ XXXXXXXXXXXXXXXXXXXXXXX",
"++++++++ XXXXXXXXXXXXXXXXXXXXXXX",
"++++++++ XXXXXXXXXXXXXXXXXXXXXXX",
"++++++++ XXXXXXXXXXXXXXXXXXXXXXX",
"++++++++                        ",
"++++++++++++++++++++++++++++++++",
"++++++++++++++++++++++++++++++++",
"++++++++++++++++++++++++++++++++",
"++++++++++++++++++++++++++++++++"
};
