/* XPM */
static char *column[] = {
/* columns rows colors chars-per-pixel */
"32 32 6 1 ",
"  c #2F2F2E",
". c #5A5A59",
"X c #676767",
"o c gray43",
"O c gray54",
"+ c None",
/* pixels */
"+++++++++++++++  ....... +++++++",
"+++++++++++++  ..OOO.OO. +++++++",
"++++++++++++ ....oo.ooo. +++++++",
"+++++++++++ .......oo... +++++++",
"++++++++++ ....X.XX..XX. +++++++",
"+++++++++ .............. +++++++",
"++++++++ ....OOOOOOO.OO. +++++++",
"+++++++ ....oooooooo.oo. +++++++",
"+++++++ ..oo..oooooo.oo. +++++++",
"+++++++ ..XXXX.XXXXX.XX. +++++++",
"+++++  .................  ++++++",
"++++ O.OO.OO.OOOO.OOOOO.OO +++++",
"+++ OO.ooo...oooo.ooooo.OO +++++",
"+++ OO.ooooo.oooo.ooooo.OO +++++",
"+++ OO.XXXXX.XXXX.XXXXX.O ++++++",
"+++ OO..................O ++++++",
"+++ OO.OO.OOOOOO.OOO.OO.OO +++++",
"+++ OO.oo.ooooooo....oo.OO +++++",
"+++ OO.oo.oo..oooooo.oo.OO +++++",
"+++ OO.XX.....XXXXXX.XX.OO +++++",
"+++ OO..................OO +++++",
"+++ XOOOOOOOOOOOOOOoOOOOOO +++++",
"++++ XOOOOOOOOOOOooXoOOOOO +++++",
"++++ XXooooooooooXXXoooooo +++++",
"++++ XXXXXXXXXXXXXXXXXXXXX +++++",
"+++ XXXXXXXXXXXXXXXXXXXXXX +++++",
"+++ XXXXXXXXXXXXXXXXXXXXXX +++++",
"+++ XXXXXXXXXXXXXXXXXXXXX ++++++",
"++++++++++++++++++++++++++++++++",
"++++++++++++++++++++++++++++++++",
"++++++++++++++++++++++++++++++++",
"++++++++++++++++++++++++++++++++"
};
