/* XPM */
static char *_1[] = {
/* columns rows colors chars-per-pixel */
"32 32 6 1 ",
"  c #2F2F2E",
". c #5A5A59",
"X c #676767",
"o c gray43",
"O c gray54",
"+ c None",
/* pixels */
".OOOOO.OOOOOO.OOOOOO.OOOO.OOOOOO",
".ooooo.oooooo.oooooo.oooo.oooooo",
".ooooo.oooooo.oooooo.oooo.oo.o..",
".XXXXX.XXXXXX.XXXXXX.XXXX.XXXX..",
"................................",
"OOO.OOOOOOO..........OOOOOOO.OOO",
"oo..ooooooo..........ooooooo.ooo",
"o.o.ooooooo..........ooooooo.ooo",
".XX.XXXXXXX..........XXXXXXX.XXX",
"................................",
"OOOOOO.OOOO..........OOOO.OOOOO.",
"oooooo.oooo..........oooo.ooooo.",
"oo.ooo.oooo..........oooo.ooooo.",
"X.X.XX.XXXX..........XXXX.XXXXX.",
"................................",
"OOO.OOOOOO.OOOOOO.OOOOO.OOOO.OOO",
"ooo.oooooo.oooooo.ooooo.oooo.ooo",
"ooo.oooooo..ooooo.ooooo.oooo.ooo",
"XXX.XXXXXX.XXXXXX.XX.XX.XXXX.XXX",
"................................",
"OOOOOOOOOOOOOOOOOOOOOOOOOOOOOOOO",
"OOOOOOOOOOOOOOOOOOOOOOOOOOOOOOOO",
"oooooooooooooooooooooooooooooooo",
"XXXXXXXXXXXXXXXXXXXXXXXXXXXXXXXX",
"XXXXXXXXXXXXXXXXXXXXXXXXXXXXXXXX",
"XXXXXXXXXXXXXXXXXXXXXXXXXXXXXXXX",
"XXXXXXXXXXXXXXXXXXXXXXXXXXXXXXXX",
"                                ",
"++++++++++++++++++++++++++++++++",
"++++++++++++++++++++++++++++++++",
"++++++++++++++++++++++++++++++++",
"++++++++++++++++++++++++++++++++"
};
