/* XPM */
static char *_2[] = {
/* columns rows colors chars-per-pixel */
"32 32 6 1 ",
"  c #2F2F2E",
". c #5A5A59",
"X c #676767",
"o c gray43",
"O c gray54",
"+ c None",
/* pixels */
".OOOOO.OOOOOO.OOOOOO.OOOO.OOOOOO",
".ooooo.ooooo..oooooo.oooo.oooooo",
".ooooo.oooo.o.oooooo.oooo.oooooo",
".XXXXX.XXXX.X.XXXXXX.XXXX.XXXXXX",
"................................",
"OOO.OOOOOO.OOOOOO.......OOOO.OOO",
"ooo.oooooo.oooooo.......oooo.ooo",
"ooo.oooooo.ooooo.......ooooo.ooo",
"XXX..XXXXX.XXXX........XXXXX.XXX",
"................................",
"OOOOOO.OOOOOOO.OOOOO.OOOO.OOOOO.",
"oooooo.ooooooo.ooooo.oooo.ooooo.",
"oooooo.ooooooo.ooooo.oooo.ooooo.",
"XXXXXX.XXXXXXX.XXXXX.XXXX.XXXXX.",
"................................",
"OOO.OOOOOO.OOOOOO.OOOOO.OOOO.OOO",
"ooo.oooooo.oooooo.ooooo.oooo.ooo",
"ooo.ooooo..oooooo.ooooo.oooo.ooo",
"XXX.XXXX.X.XXXXXX.XXXXX.XXXX.XXX",
"................................",
"OOOOOOOOOOOOOOOOOOOOOOOOOOOOOOOO",
"OOOOOOOOOOOOOOOOOOOOOOOOOOOOOOOO",
"oooooooooooooooooooooooooooooooo",
"XXXXXXXXXXXXXXXXXXXXXXXXXXXXXXXX",
"XXXXXXXXXXXXXXXXXXXXXXXXXXXXXXXX",
"XXXXXXXXXXXXXXXXXXXXXXXXXXXXXXXX",
"XXXXXXXXXXXXXXXXXXXXXXXXXXXXXXXX",
"                                ",
"++++++++++++++++++++++++++++++++",
"++++++++++++++++++++++++++++++++",
"++++++++++++++++++++++++++++++++",
"++++++++++++++++++++++++++++++++"
};
