/* XPM */
static char *_3[] = {
/* columns rows colors chars-per-pixel */
"32 32 6 1 ",
"  c #2F2F2E",
". c #5A5A59",
"X c #676767",
"o c gray43",
"O c gray54",
"+ c None",
/* pixels */
".OOOOO.OOOOOO.OOOOOO.OOOO.OOOOOO",
".ooo.o.oooooo.oooooo.oooo.oooooo",
".oo.oo.oooooo.oooooo.oooo.oooooo",
".XX.XX.XXXXXX.XXXXXX.XXXX.XXXXXX",
"................................",
"OOO.OOOOOO..OOOOO.OOOO.OOOOO.OOO",
"ooo.oooooo.oooooo.oooo.ooooo.ooo",
"oo..oooooo.oooo...oooo.ooooo.ooo",
"X.X.XXXXXX.XXX..X.XXXX.XXXXX.XXX",
"................................",
"OOOOOO.OOOOOOO.OOOOO.OOOO.OOOOO.",
"oooooo.ooooooo.ooooo.oooo.ooooo.",
"oooo...o.o..oo.ooooo.oooo.ooooo.",
"XXX.XX.XXX..XX.XXXXX.XXXX.XXXXX.",
"................................",
"OOO.OOOOOO.OOOOOO.OO....OOOO.OOO",
"ooo.oooooo.oooooo.oooo..oooo.ooo",
"ooo.oooooo.oooooo.ooooo.ooo..ooo",
"XXX.XXXXXX.XXXXXX...XXX.XX.X.XXX",
"................................",
"OOOOOOOOOOOOOOOOOOOOOOOOOOOOOOOO",
"OOOOOOOOOOOOOOOOOOOOOOOOOOOOOOOO",
"ooooooooooooooooooOOOOOooooooooo",
"XXXXXXXXXXXXXXXXXXoooOoXXXXXXXXX",
"XXXXXXXXXXXXXXXXXXXXXoXXXXXXXXXX",
"XXXXXXXXXXXXXXXXXXXXXXXXXXXXXXXX",
"XXXX    XXXXXXXXXXXXXXXXXXXXXXXX",
"    ++++                        ",
"++++++++++++++++++++++++++++++++",
"++++++++++++++++++++++++++++++++",
"++++++++++++++++++++++++++++++++",
"++++++++++++++++++++++++++++++++"
};
