/* XPM */
static char *_4[] = {
/* columns rows colors chars-per-pixel */
"32 32 6 1 ",
"  c #2F2F2E",
". c #5A5A59",
"X c #676767",
"o c gray43",
"O c gray54",
"+ c None",
/* pixels */
".OOOOO.OOOOOO.OOOOOO.OOOO.OOOOOO",
".ooooo.oooooo.oooooo.oooo.oooooo",
".ooooo.o.ooo..oo.ooo.oooo.oooooo",
".XXXXX.X..XX..XX..XX.XXXX.XXXXXX",
"................................",
"OOO..OOO......O...OOOO.OOOOO.OOO",
"ooo.ooo.......oo..oooo.ooooo.ooo",
"ooo..o.o.o....oo..o.oo.ooooo.ooo",
"XXX..X.XXX....XX..X..X.XXXXX.XXX",
"................................",
"OOOOOO.OOOOO...OOOOO.OOOO.OOOOO.",
"oooooo.oooooo..ooooo.oooo.ooooo.",
"oooooo.oo.oooo.ooooo.oooo.ooooo.",
"XXXXXX.XXX.XXX.XXXXX.XXXX.XXXXX.",
"................................",
"OOO.OOOOOO.OOOOOO.OOOOO.OOOO.OOO",
"ooo.oooooo.oooooo.oo.oo.oooo.ooo",
"ooo.oooooo..ooooo.o.ooo.oooo.ooo",
"XXX.XXXXXX.X.XXXX.X.XXX.XXXX.XXX",
"................................",
"OOOOOOOOOOOOOOOOOOOOOOOOOOOOOOOO",
"OOOOOOOOOOOOOOOOOOOOOOOOOOOOOOOO",
"oooooooooooooooooooooooooooooooo",
"XXXXXXXXXXXXXXXXXXXXXXXXXXXXXXXX",
"XXXXXXXXXXXXXXXXXXXXXXXXXXXXXXXX",
"XXXXXXXXXXXXXXXXXXXXXXXXXXXXXXXX",
"XXXXXXXXXXXXXXXXXXXXXXXXXXXXXXXX",
"                                ",
"++++++++++++++++++++++++++++++++",
"++++++++++++++++++++++++++++++++",
"++++++++++++++++++++++++++++++++",
"++++++++++++++++++++++++++++++++"
};
