/* XPM */
static char *_5[] = {
/* columns rows colors chars-per-pixel */
"32 32 6 1 ",
"  c #2F2F2E",
". c #5A5A59",
"X c #676767",
"o c gray43",
"O c gray54",
"+ c None",
/* pixels */
".OOOOO.OOOOO..OOOOOO.OOOO.OOOOOO",
".ooooo.oooo...oooooo.oooo.oooooo",
".ooooo.oo.o...oooooo.oooo.oooooo",
".XXXXX.XXXXXX.XXXXXX.XXXX.XXXXXX",
"................................",
"OOO.OOOOOO.OOOOOO.OOOO.OOOOO.OOO",
"ooo.oooooo.oooooo.oooo.ooooo.ooo",
"ooo.oooooo.oooooo.oooo.ooo...ooo",
"XXX.XXXXXX.XXXXXX.XXXX.XX.XX.XXX",
"................................",
"OOOOOO.OOOOOOO.OOOOO.OOOO.OOOOO.",
"oooooo.ooooooo.ooooo.oooo.ooooo.",
"oooooo.ooooo...ooooo.oooo.ooooo.",
"XXXXXX.XXXX.XX.XXXXX.XXXX.XXXXX.",
"................................",
"OOO.OOOOOO.OOOOOO.OOOOO.OOOO.OOO",
"ooo.oooooo.oooooo.ooooo.oooo.ooo",
"ooo..ooooo.oooooo.ooooo.oooo.ooo",
"XXX.X.XXXX.XXXXXX.XXXXX.XXXX.XXX",
"................................",
"OOOOOOOOOOOOOOOOOOOOOOOOOOOOOOOO",
"OOOOOOOOOOOOOOOOOOOOOOOOOOOOOOOO",
"oooooooooooooooooooooooooooooooo",
"XXXXXXXXXXXXXXXXXXXXXXXXXXXXXXXX",
"XXXXXXXXXXXXXXXXXXXXXXXXXXXXXXXX",
"XXXXXXXXXXXXXXXXXXXXXXXXXXXXXXXX",
"XXXXXXXXXXXXXXXXXXXXXXXXXXXXXXXX",
"                                ",
"++++++++++++++++++++++++++++++++",
"++++++++++++++++++++++++++++++++",
"++++++++++++++++++++++++++++++++",
"++++++++++++++++++++++++++++++++"
};
