/* XPM */
static char *_6[] = {
/* columns rows colors chars-per-pixel */
"32 32 11 1 ",
"  c #2F2F2E",
". c #454544",
"X c #4C4C4B",
"o c gray31",
"O c #5A5A59",
"+ c #5D5D5D",
"@ c #676767",
"# c #6C6C6B",
"$ c gray43",
"% c gray54",
"& c None",
/* pixels */
"O%%%%%O%%%%%OO.   .OO%%%%O%%%%%%",
"O$$$$$O$$$$$OO.    OO$$$$O$$$$$$",
"O$$$$$OOO$$$OO     .O$$$$O$$$$$$",
"O@@@@@O@@O@OO.     .O@@@@O@@@@@@",
"OOOOOOOOOOOOO.     .OOOOOOOOOOOO",
"%%%O%%%%%%OOO.      OOO%%%%%O%%%",
"$$$O$$$$$$OOO       .OO$$$$$O$$$",
"$$$O$$$$$$OOO       .OO$$$$$O$$$",
"@@@O@@@@@@OOO        OO@@@@@O@@@",
"OOOOOOOOOOOOO        OOOOOOOOOOO",
"%%%%%%O%%%%%O        .%%%O%%%%%O",
"$$$$$$O$$$$$O         $$$O$$$$$O",
"$$$$$$O$$$OO.         .$$O$$$$$O",
"@@@@@@O@@OOO.          @@O@@@@@O",
"OOOOOOOOOOOO           .OOOOOOOO",
"%%%O%%%%%%OO            %%%%O%%%",
"$$$O$$$$$$O.            .$$$O$$$",
"$$$O$$$$OOO.             $$$O$$$",
"@@@O@@@O@@O X            .@@O@@@",
"OOOOOOOOOOOX#X ..  ..     OOOOOO",
"%%%%%%%%%%.X##XXXX XX. .. .%%%%%",
"%%%%%%%%%% XXXX X +++ XX. +%%%%%",
"$$$$$$$$$o X%%%X X###+   ++$$$$$",
"@@@@@@@@@oX%%%%%% X###+ +#+.@@@@",
"@@@@@@@@@o@%%%%%%X XXX XXXX @@@@",
"@@@@@@@@@o@@%%%%%%%  X%%%%% @@@@",
"@@@@@@@   @@@@@%%%% X%%%%@@  @@@",
"       && @@@@@@@@XXX%%@@@@ &   ",
"&&&&&&&&&& @@@@@@ %% @@@@@@ &&&&",
"&&&&&&&&&&&       @% @@@@  &&&&&",
"&&&&&&&&&&&&&&&&&&  &    &&&&&&&",
"&&&&&&&&&&&&&&&&&&&&&&&&&&&&&&&&"
};
