/* XPM */
static char *_7[] = {
/* columns rows colors chars-per-pixel */
"32 32 6 1 ",
"  c #2F2F2E",
". c #5A5A59",
"X c #676767",
"o c gray43",
"O c gray54",
"+ c None",
/* pixels */
".OOOOO.OOOOOO.OOOOOO.OOOO.OOOOOO",
".ooooo.oooooo.oooooo.oooo.oooooo",
".ooooo.oo..............oo.oooooo",
".XXXXX.X.              .X.XXXXXX",
".........              .........",
"OOO.OOOO.              .OOOO.OOO",
"ooo.oooo.              .oooo.ooo",
"ooo.oooo.ooXXooXooooXoo.oooo.ooo",
"XXX.XXXX.ooXXooooooXooo.XXXX.XXX",
"................................",
"OOOOOO.OOOOOOO.OOOOO.OOOO.OOOOO.",
"oooooo.ooooooo.ooooo.oooo.ooooo.",
"oooooo.ooooo...ooooo.oooo.ooooo.",
"XXXXXX.XXXX.XX.XXXXX.XXXX.XXXXX.",
"................................",
"OOO.OOOOOO.OOOOOO.OOOOO.OOOO.OOO",
"ooo.oooooo.oooooo.ooooo.oooo.ooo",
"ooo.oooooo.oooooo.ooooo.ooo..ooo",
"XXX.XXXXXX.XXXXXX.XXXXX.XX...XXX",
"................................",
"OOOOOOOOOOOOOOOOOOOOOOOOOOOOOOOO",
"OOOOOOOOOOOOOOOOOOOOOOOOOOOOOOOO",
"oooooooooooooooooooooooooooooooo",
"XXXXXXXXXXXXXXXXXXXXXXXXXXXXXXXX",
"XXXXXXXXXXXXXXXXXXXXXXXXXXXXXXXX",
"XXXXXXXXXXXXXXXXXXXXXXXXXXXXXXXX",
"XXXXXXXXXXXX   XXXXXXXXXXXXXXXXX",
"            +++                 ",
"++++++++++++++++++++++++++++++++",
"++++++++++++++++++++++++++++++++",
"++++++++++++++++++++++++++++++++",
"++++++++++++++++++++++++++++++++"
};
