/* XPM */
static char *_8[] = {
/* columns rows colors chars-per-pixel */
"32 32 6 1 ",
"  c #2F2F2E",
". c #5A5A59",
"X c #676767",
"o c gray43",
"O c gray54",
"+ c None",
/* pixels */
".OOOOO.OOOOOO.OOOOOO.OOOO.OOOOOO",
".ooooo.oooooo.oooooo.oooo.oooooo",
".ooooo...oo.o.oooooo.oooo.oooooo",
".XXXXX...XXXX.XXXXXX.XXXX.XXXXXX",
"................................",
"OOO.OOOOOO.OOOOOO.OOOO.OOOOO.OOO",
"ooo.oooooo.oooooo.oooo.ooooo.ooo",
"ooo.oooooo.oooooo.oooo.ooo.o.ooo",
"XXX.XXXXXX.XXXXXX.XXXX.XXXX..XXX",
"................................",
"OOOOOO.OOOOOOO.OOOOO.OOOO.OOOOO.",
"oooooo.ooooooo.ooooo.oooo.ooooo.",
"oooooo.ooooooo.ooooo.ooo..ooooo.",
"XXXXXX.XXXXXXX.XXXXX.XX.X.XXXXX.",
"................................",
"OOO.OOOOOO.OOOOOO.OOOOO.OOOO.OOO",
"ooo.oooooo.oooooo.ooooo.oooo.ooo",
"ooo.oooo...oooooo.ooooo.oooo.ooo",
"XXX.XXX.XX.XXXXXX.XXXXX.XXXX.XXX",
"................................",
"OOOOOOOOOOOOOOOOOOOOOOOOOOOOOOOO",
"OOOOOOOOOOOOOOOOOOOOOOOOOOOOOOOO",
"ooooooooOOOOoooooooooooooooooooo",
"XXXXXXXXooooXXXXXXXXXXXXXXXXXXXX",
"XXXXXXXXXXXXXXXXXXXXXXXXXXXXXXXX",
"XXXXXXXXXXXXXXXXXXXXXXXXXXXXXXXX",
"XXXXXXXXXXXXXXXXXXXXXXXXXXXXXXXX",
"                                ",
"++++++++++++++++++++++++++++++++",
"++++++++++++++++++++++++++++++++",
"++++++++++++++++++++++++++++++++",
"++++++++++++++++++++++++++++++++"
};
