/* XPM */
static char *_9[] = {
/* columns rows colors chars-per-pixel */
"32 32 10 1 ",
"  c #2F2F2E",
". c #515150",
"X c #5A5A59",
"o c gray36",
"O c gray38",
"+ c #676767",
"@ c gray43",
"# c gray47",
"$ c gray54",
"% c None",
/* pixels */
"X$$$$##X$$$$X$$$$$$X$$$$X.#$$$$$",
"X@@@@OOX@@@@X@@@@@@X@@@@X.O@@@@@",
"XXX@XOOX@@@@X@@@@@@X@@@@X.O@@@@@",
"XXX++..X++++X++++++X++++X.o+++++",
"XXXXX..XXXXXXXXXXXXXXXXXX..XXXXX",
"$$$X$##X$$$$$$X$$X$$$$$$X##$X$$$",
"@@@X@OOX@@@@@@X@@X@@@@@@XOO@X@@@",
"@@@X@OOX@@@@@@X@@X@@@@@@XO.@X@@@",
"+++X+ooX++++++X++X++++++XOoXX+++",
"XXXXX..XXXXXXXXXXXXXXXXXX..XXXXX",
"$$$$$#.X$$X$$$$$$$$$$X$$X##$$$$X",
"@@@@@O.X@@X@@@@@@@@@@X@@XOO@@@@X",
"@@@@@O.X@@X@@@@@@@@@@X@@XOO@@@@X",
"+++++o.X++X++++++++++X++Xoo++++X",
"XXXXX..XXXXXXXXXXXXXXXXXX..XXXXX",
"$$$X$##X$$$$$X$$$$X$$$$$X##$X$$$",
"@@@X@OOX@@@@@X@@@@X@@@@@XOO@X@@@",
"@@@X@OOX@@@@@X@@@@X@@@@@XOO@X@@@",
"+++X+ooX+++++X++++X+++++Xoo+X+++",
"XXXXX.XXXXXXXXXXXXXXXXXXX.XXXXXX",
"$$$$$$$X$$X$$$$$$$$$$X$$X$$$$$$$",
"$$$$$$$X@@X@@@@@@@@@@X@@X$$$$$$$",
"@@@@@$$X@@X@@@@@@@@@@X@@X$$@@@@@",
"+++++$$X++X++++++++++X++X$$+++++",
"+++++$$XXXXXXXXXXXXXXXXXX$$+++++",
"+++++$$$$$$$$$$$$$$$$$$$$$$+++++",
"+++++$$$$$$$$$$$$$$$$$$$$$$+++++",
"     @@@@@@@@@@@@@@@@@@@@@@     ",
"%%%% ++++++++++++++++++++++ %%%%",
"%%%% ++++++++++++++++++++++ %%%%",
"%%%% ++++++++++++++++++++++ %%%%",
"%%%%                        %%%%"
};
