/* XPM */
static char *_0[] = {
/* columns rows colors chars-per-pixel */
"32 32 7 1 ",
"  c #2F2F2E",
". c #494949",
"X c #5A5A59",
"o c #676767",
"O c gray43",
"+ c gray54",
"@ c None",
/* pixels */
"X+++++X++++++X+           .XX+++",
"XOOOOOXOOOOOO            ..OOOOO",
"XOOOOOXOOOO            ..XOOOOOO",
"XoooooXooo           ..ooXoooooo",
"XXXXXXXXX         ...XXXXXXXXXXX",
"+++X+++++        .XXX+X+++++X+++",
"OOOXOOOO    .....X+++OXOOOOOXOOO",
"OOOXOOO.....OOOOOXOOOOXOOOOOXOOO",
"oooXooooooXooooooXooooXoooooXooo",
"XXXXXXXXXXXXXXXXXXXXXXXXXXXXXXXX",
"++++++X+++++++X+++++X++++X+++++X",
"OOOOOOXOOOOOOOXOOOOOXOOOOXOOOOOX",
"OOOOOOXOOOXXOOXOXXOXXOOOOXOOOOOX",
"ooooooXooXooooXXXXooXooooXoooooX",
"XXXXXXXXXXXXXXXXXXXXXXXXXXXXXXXX",
"+++X++++++X++++++X+++++X++++X+++",
"OOOXOOOOOOXOOOOOOXOOOOOXOOOOXOOO",
"OOOXOOOOOOXOOOOOOXOOOOOXOOOOXOOO",
"oooXooooooXooooooXoooooXooooXooo",
"XXXXXXXXXXXXXXXXXXXXXXXXXXXXXXXX",
"++++++++++++++++++++++++++++++++",
"++++++++++++++++++++++++++++++++",
"OOOOOOOOOOOOOOOOOOOOOOOOOOOOOOOO",
"oooooooooooooooooooooooooooooooo",
"oooooooooooooooooooooooooooooooo",
"oooooooooooooooooooooooooooooooo",
"oooooooooooooooooooooooooooooooo",
"                                ",
"@@@@@@@@@@@@@@@@@@@@@@@@@@@@@@@@",
"@@@@@@@@@@@@@@@@@@@@@@@@@@@@@@@@",
"@@@@@@@@@@@@@@@@@@@@@@@@@@@@@@@@",
"@@@@@@@@@@@@@@@@@@@@@@@@@@@@@@@@"
};
