/* XPM */
static char *tile089[] = {
/* columns rows colors chars-per-pixel */
"32 32 4 1 ",
"  c #5A5A59",
". c #696967",
"X c #494949",
"o c white",
/* pixels */
" ..................   ..  .    X",
".                              X",
".                              X",
".                             XX",
".                            XXX",
".                              X",
".                              X",
".     ..                       X",
".     ..  .              XX    X",
".                        XX    X",
".                              X",
".                              X",
".                              X",
".                              X",
".               .XX            X",
".               .XX            X",
".                              X",
".    .XX                       X",
".    .XX  X                    X",
".    .XX                       X",
".                    ...       X",
".                    ...       X",
".                              X",
".                              X",
".                              X",
".                              X",
".                              X",
".                             XX",
".                            XXX",
".           .XXXXX         XXXXX",
".          .XXXXX         XXXXXX",
"XXXXXXXXXXXXXXXXXXXXXXXXXXXXXXXX"
};
