/* XPM */
static char *tile090[] = {
/* columns rows colors chars-per-pixel */
"32 32 4 1 ",
"  c #5A5A59",
". c #696967",
"X c #494949",
"o c white",
/* pixels */
" ...............................",
".                               ",
".                               ",
".                               ",
".                               ",
".                               ",
".                               ",
".                               ",
".                  XXX          ",
".                  XXX          ",
".                  XX           ",
".          .XXX                 ",
".          .XXX                 ",
".          .XXX                 ",
".          .XXX                 ",
".                   X           ",
".                               ",
".                               ",
".                               ",
".                               ",
".                         .     ",
".                               ",
".                               ",
".                               ",
".                               ",
".                               ",
".                               ",
".                               ",
".                               ",
".                               ",
"                                ",
"                                "
};
