/* XPM */
static char *tile093[] = {
/* columns rows colors chars-per-pixel */
"32 32 4 1 ",
"  c #5A5A59",
". c #696967",
"X c #494949",
"o c white",
/* pixels */
" ..................   ..  .    X",
".                              X",
".                              X",
".                              X",
".                              X",
".                              X",
".         X                    X",
".   .                XXX       X",
".                    XXX       X",
".                              X",
".                              X",
".                   ..         X",
".                   ..         X",
".                              X",
".                              X",
".               XXXXXXXXXXXXXXXX",
".       X      X.....   ..  .  X",
".              X.              X",
".              X.              X",
".              X.              X",
".              X.              X",
".              X.              X",
".              X.              X",
".   ..         X.XX            X",
".   ..         X.XX            X",
".              X.        .XX   X",
".           .  X.        .XX   X",
".              X.              X",
".              X.              X",
".              X.              X",
".              X.              X",
"XXXXXXXXXXXXXXXXXXXXXXXXXXXXXXXX"
};
