/* XPM */
static char *tile104[] = {
/* columns rows colors chars-per-pixel */
"32 32 4 1 ",
"  c #5A5A59",
". c #696967",
"X c #494949",
"o c white",
/* pixels */
" ..................   ..  .    X",
".                              X",
".                              X",
".  XX X                        X",
"   XX           ..             X",
"                ..             X",
"                    XXXX       X",
"              .     XXXX       X",
".                    XXX       X",
".                              X",
".     X                        X",
".    XX                        X",
".    XX                       XX",
".                            XXX",
".                            XXX",
".                           XXXX",
"          .X                XXXX",
"          .XX              X. XX",
"       X  .XX              X   X",
".                         X.   X",
"                          X    X",
"                         X.    X",
"                        X.     X",
"                       XX      X",
"    XXX              XX. X     X",
"    XXX             X.    X    X",
"            XX     X.     X XXXX",
"            XX    X.       XXXXX",
"                  X.       XXXXX",
".              X X.       XXXXXX",
".                X.       XXXXXX",
"XXXXXXXXXXXXXXXXXXXXXXXXXXXXXXXX"
};
