/* XPM */
static char *tile105[] = {
/* columns rows colors chars-per-pixel */
"32 32 4 1 ",
"  c #696967",
". c #5A5A59",
"X c #494949",
"o c white",
/* pixels */
"    ...    ....X   ...  .. ....X",
" ..............X ..............X",
" ..............X ..............X",
" ..............X ..............X",
".... ..........X ..............X",
"...............X ..............X",
"...............X ......  ......X",
"..........X....X...... XXXX....X",
" ..............X..... XXXXX....X",
" ..............X....... XX.....X",
" .... .........X ..............X",
" ..............X ..............X",
".....XX........X...XX..........X",
" ....XX........X ..XX.......X..X",
" ..............X ..........XXX.X",
"XXXXXXXXXXXXXXXXXXXXXXXXXXXXXXXX",
"     .  .. ....X          . ...X",
" ..............X ..............X",
" ..............X ..............X",
" ..............X ..............X",
" ..............X ...  .........X",
" ........ ....XX ...  .... ....X",
".............XXX...............X",
".............XXX ..............X",
"..............XX ...........X..X",
" ..X...........X.......XXX.....X",
"...XX..........X.......XXX.....X",
"...XX....  ....X...............X",
".........   ...X ..............X",
"...............X...............X",
"...............X...............X",
"XXXXXXXXXXXXXXXXXXXXXXXXXXXXXXXX"
};
