/* XPM */
static char *tile107[] = {
/* columns rows colors chars-per-pixel */
"32 32 4 1 ",
"  c #5A5A59",
". c #494949",
"X c #696967",
"o c white",
/* pixels */
"                               .",
"                               .",
"                               .",
"                              ..",
"                              ..",
"                             ...",
"                             ...",
"                             ...",
"       XXX                   ...",
"       XXX                   ...",
"                              ..",
"                  .            .",
"                               .",
"                               .",
"                               .",
"                               .",
"                               .",
"                               .",
"                        ..     .",
"                ..      ..     .",
"               ...             .",
"                ..             .",
"                               .",
"                               .",
"                        X      .",
"                               .",
"                               .",
"                               .",
"                               .",
"                               .",
"                               .",
"................................"
};
