/* XPM */
static char *_2[] = {
/* columns rows colors chars-per-pixel */
"32 32 11 1 ",
"  c #898511",
". c #939437",
"X c #BEBA30",
"o c #FFF255",
"O c #306082",
"+ c #5B6EE1",
"@ c #FFF9AE",
"# c #A5ADE1",
"$ c #FFB9EC",
"% c white",
"& c None",
/* pixels */
"&&&&&&&&&&&&&&&&&&&&&&&&&&&&&&&&",
"&&&&&&&&&&&&&&&&&&&&&&&&&&&&&&&&",
"&&&&&&&&&&&&&&&&&&&&&&&&&&&&&&&&",
"&&&&&&&&&&&&&&&&&&&&&&&&&&&&&&&&",
"&&&&&&&&&&&&&&&&&&&&&&&&&&&&&&&&",
"&&&&&&&&&&&&&&&&&&&&&&&&&&&&&&&&",
"&&&&&&&&&&&&&&&&&&&&&&&&&&&&&&&&",
"&&&&&&&&&&&          &&&&&&&&&&&",
"&&&&&&&&&  %%%ooooooo  &&&&&&&&&",
"&&&&&&&& %%XXXXXXXXXXoo &&&&&&&&",
"&&&&&&& o@@XXX$$$XXXXXXo &&&&&&&",
"&&&&&& o@@@XX$+%$$XXXXXXo &&&&&&",
"&&&&&& X@@XXX$%O+$XXXXXXX &&&&&&",
"&&&&& XXXXXXX%++#%XXXXXXXX &&&&&",
"&&&&& XX@XXXXX%%%XXXXXXXXX &&&&&",
"&&&&& XXXXXXXXXXXXXXXXXXXX &&&&&",
"&&&&& XXXXXXXXXXXXXXXXXXXX &&&&&",
"&&&&& XXXXXXXXXXXXXXXXXXXX &&&&&",
"&&&&& XXXXX..........XXXXX &&&&&",
"&&&&&& XXX............XXX &&&&&&",
"&&&&&& XXX............XXX &&&&&&",
"&&&&&&& XXX..........XXX &&&&&&&",
"&&&&&&&&  XXXXXXXXXXXX  &&&&&&&&",
"&&&&&&&&&&            &&&&&&&&&&",
"&&&&&&&&&&&&&&&&&&&&&&&&&&&&&&&&",
"&&&&&&&&&&&&&&&&&&&&&&&&&&&&&&&&",
"&&&&&&&&&&&&&&&&&&&&&&&&&&&&&&&&",
"&&&&&&&&&&&&&&&&&&&&&&&&&&&&&&&&",
"&&&&&&&&&&&&&&&&&&&&&&&&&&&&&&&&",
"&&&&&&&&&&&&&&&&&&&&&&&&&&&&&&&&",
"&&&&&&&&&&&&&&&&&&&&&&&&&&&&&&&&",
"&&&&&&&&&&&&&&&&&&&&&&&&&&&&&&&&"
};
