/* XPM */
static char *_4[] = {
/* columns rows colors chars-per-pixel */
"32 32 11 1 ",
"  c #898511",
". c #939437",
"X c #BEBA30",
"o c #FFF255",
"O c #306082",
"+ c #5B6EE1",
"@ c #FFF9AE",
"# c #A5ADE1",
"$ c #FFB9EC",
"% c white",
"& c None",
/* pixels */
"&&&&&&&&&&&&&&&&&&&&&&&&&&&&&&&&",
"&&&&&&&&&&&&&&&&&&&&&&&&&&&&&&&&",
"&&&&&&&&&&&&&&&&&&&&&&&&&&&&&&&&",
"&&&&&&&&&&&&&&&&&&&&&&&&&&&&&&&&",
"&&&&&&&&&&&&&&&&&&&&&&&&&&&&&&&&",
"&&&&&&&&&&&&&&&&&&&&&&&&&&&&&&&&",
"&&&&&&&&&&&&&&&&&&&&&&&&&&&&&&&&",
"&&&&&&&&&&&&&&&&&&&&&&&&&&&&&&&&",
"&&&&&&&&&&&&&&&&&&&&&&&&&&&&&&&&",
"&&&&&&&&&&&&&&&&&&&&&&&&&&&&&&&&",
"&&&&&&&&&&&&        &&&&&&&&&&&&",
"&&&&&&&&&&  %ooooooo  &&&&&&&&&&",
"&&&&&&&&  %%@XXXXXXXoo  &&&&&&&&",
"&&&&&&& %%@@XX$$$XXXXXoo &&&&&&&",
"&&&&&& o@@@XX$+%$$XXXXXXo &&&&&&",
"&&&&&& X@@XXX$%O+$XXXXXXX &&&&&&",
"&&&&& XXXXXXX%++#%XXXXXXXX &&&&&",
"&&&&& XXXXXXXX%%%XXXXXXXXX &&&&&",
"&&&& XXXXXX..........XXXXXX &&&&",
"&&&& XXXX..............XXXX &&&&",
"&&&& XX..................XX &&&&",
"&&&&& XX................XX &&&&&",
"&&&&&&  XXXXXXXXXXXXXXXX  &&&&&&",
"&&&&&&&&                &&&&&&&&",
"&&&&&&&&&&&&&&&&&&&&&&&&&&&&&&&&",
"&&&&&&&&&&&&&&&&&&&&&&&&&&&&&&&&",
"&&&&&&&&&&&&&&&&&&&&&&&&&&&&&&&&",
"&&&&&&&&&&&&&&&&&&&&&&&&&&&&&&&&",
"&&&&&&&&&&&&&&&&&&&&&&&&&&&&&&&&",
"&&&&&&&&&&&&&&&&&&&&&&&&&&&&&&&&",
"&&&&&&&&&&&&&&&&&&&&&&&&&&&&&&&&",
"&&&&&&&&&&&&&&&&&&&&&&&&&&&&&&&&"
};
