/* XPM */
static char *_5[] = {
/* columns rows colors chars-per-pixel */
"32 32 11 1 ",
"  c #891111",
". c #943737",
"X c #BE3030",
"o c #E71919",
"O c #306082",
"+ c #5B6EE1",
"@ c #FFAEAE",
"# c #A5ADE1",
"$ c #FFB9EC",
"% c white",
"& c None",
/* pixels */
"&&&&&&&&&&&&&&&&&&&&&&&&&&&&&&&&",
"&&&&&&&&&&&&&&&&&&&&&&&&&&&&&&&&",
"&&&&&&&&&&&&&&&&&&&&&&&&&&&&&&&&",
"&&&&&&&&&&&&&&&&&&&&&&&&&&&&&&&&",
"&&&&&&&&&&&&&&&&&&&&&&&&&&&&&&&&",
"&&&&&&&&&&&&&&&&&&&&&&&&&&&&&&&&",
"&&&&&&&&&&&&&&&&&&&&&&&&&&&&&&&&",
"&&&&&&&&&&&&&&&&&&&&&&&&&&&&&&&&",
"&&&&&&&&&&&&&&&&&&&&&&&&&&&&&&&&",
"&&&&&&&&&&&&&&&&&&&&&&&&&&&&&&&&",
"&&&&&&&&&&&&&&&&&&&&&&&&&&&&&&&&",
"&&&&&&&&&&&          &&&&&&&&&&&",
"&&&&&&&&&  %@oooooooo  &&&&&&&&&",
"&&&&&&&& %%@@@XXXXXXXoo &&&&&&&&",
"&&&&&&& %@@@XX$$$XXXXXXo &&&&&&&",
"&&&&&& o@@@XX$+%$$XXXXXXo &&&&&&",
"&&&&&& @@@XXX$%O+$XXXXXXX &&&&&&",
"&&&&& XXXXXXX%++#%XXXXXXXX &&&&&",
"&&&&& XXXXXX..%%%...XXXXXX &&&&&",
"&&&& XXXX..............XXXX &&&&",
"&&&& XX..................XX &&&&",
"&&&&& XXX..............XXX &&&&&",
"&&&&&&   XXXXXXXXXXXXXX   &&&&&&",
"&&&&&&&&&              &&&&&&&&&",
"&&&&&&&&&&&&&&&&&&&&&&&&&&&&&&&&",
"&&&&&&&&&&&&&&&&&&&&&&&&&&&&&&&&",
"&&&&&&&&&&&&&&&&&&&&&&&&&&&&&&&&",
"&&&&&&&&&&&&&&&&&&&&&&&&&&&&&&&&",
"&&&&&&&&&&&&&&&&&&&&&&&&&&&&&&&&",
"&&&&&&&&&&&&&&&&&&&&&&&&&&&&&&&&",
"&&&&&&&&&&&&&&&&&&&&&&&&&&&&&&&&",
"&&&&&&&&&&&&&&&&&&&&&&&&&&&&&&&&"
};
