/* XPM */
static char *_1[] = {
/* columns rows colors chars-per-pixel */
"32 32 11 1 ",
"  c #116989",
". c #306082",
"X c #376394",
"o c #5B6EE1",
"O c #30BEBE",
"+ c #19D5E7",
"@ c #A5ADE1",
"# c #FFB9EC",
"$ c #AEFFFF",
"% c white",
"& c None",
/* pixels */
"&&&&&&&&&&&&&&&&&&&&&&&&&&&&&&&&",
"&&&&&&&&&&&&&&&&&&&&&&&&&&&&&&&&",
"&&&&&&&&&&&&&&&&&&&&&&&&&&&&&&&&",
"&&&&&&&&&&&&&&&&&&&&&&&&&&&&&&&&",
"&&&&&&&&&&&&&&&&&&&&&&&&&&&&&&&&",
"&&&&&&&&&&&&&&&&&&&&&&&&&&&&&&&&",
"&&&&&&&&&&&&&&&&&&&&&&&&&&&&&&&&",
"&&&&&&&&&&&&&&&&&&&&&&&&&&&&&&&&",
"&&&&&&&&&&&&        &&&&&&&&&&&&",
"&&&&&&&&&&  %%++++++  &&&&&&&&&&",
"&&&&&&&&  %%OOOOOOOO++  &&&&&&&&",
"&&&&&&& +$$OOO###OOOOO++ &&&&&&&",
"&&&&&& +$$OOO#o%##OOOOOO+ &&&&&&",
"&&&&&& O$OOOO#%.o#OOOOOOO &&&&&&",
"&&&&& OOOOOOO%oo@%OOOOOOOO &&&&&",
"&&&&& OO$OOOOO%%%OOOOOOOOO &&&&&",
"&&&&& OOOOOOOOOOOOOOOOOOOO &&&&&",
"&&&&& OOOOOOOOOOOOOOOOOOOO &&&&&",
"&&&&& OOOOOOXXXXXXXXOOOOOO &&&&&",
"&&&&&& OOOXXXXXXXXXXXXOOO &&&&&&",
"&&&&&& OOXXXXXXXXXXXXXXOO &&&&&&",
"&&&&&&& OOXXXXXXXXXXXXOO &&&&&&&",
"&&&&&&&&  OOOOOOOOOOOO  &&&&&&&&",
"&&&&&&&&&&            &&&&&&&&&&",
"&&&&&&&&&&&&&&&&&&&&&&&&&&&&&&&&",
"&&&&&&&&&&&&&&&&&&&&&&&&&&&&&&&&",
"&&&&&&&&&&&&&&&&&&&&&&&&&&&&&&&&",
"&&&&&&&&&&&&&&&&&&&&&&&&&&&&&&&&",
"&&&&&&&&&&&&&&&&&&&&&&&&&&&&&&&&",
"&&&&&&&&&&&&&&&&&&&&&&&&&&&&&&&&",
"&&&&&&&&&&&&&&&&&&&&&&&&&&&&&&&&",
"&&&&&&&&&&&&&&&&&&&&&&&&&&&&&&&&"
};
