/* XPM */
static char *_3[] = {
/* columns rows colors chars-per-pixel */
"32 32 11 1 ",
"  c #116989",
". c #306082",
"X c #376394",
"o c #5B6EE1",
"O c #30BEBE",
"+ c #19D5E7",
"@ c #A5ADE1",
"# c #FFB9EC",
"$ c #AEFFFF",
"% c white",
"& c None",
/* pixels */
"&&&&&&&&&&&&&&&&&&&&&&&&&&&&&&&&",
"&&&&&&&&&&&&&&&&&&&&&&&&&&&&&&&&",
"&&&&&&&&&&&&&&&&&&&&&&&&&&&&&&&&",
"&&&&&&&&&&&&&&&&&&&&&&&&&&&&&&&&",
"&&&&&&&&&&&&&&&&&&&&&&&&&&&&&&&&",
"&&&&&&&&&&&&&&&&&&&&&&&&&&&&&&&&",
"&&&&&&&&&&&&&&&&&&&&&&&&&&&&&&&&",
"&&&&&&&&&&&&&&&&&&&&&&&&&&&&&&&&",
"&&&&&&&&&&&&&&&&&&&&&&&&&&&&&&&&",
"&&&&&&&&&&&&&&&&&&&&&&&&&&&&&&&&",
"&&&&&&&&&&&          &&&&&&&&&&&",
"&&&&&&&&&  %%%+++++++  &&&&&&&&&",
"&&&&&&&& %%$OO###OOOO++ &&&&&&&&",
"&&&&&&& %$$OO#o%##OOOOO+ &&&&&&&",
"&&&&&& +$$OOO#%.o#OOOOOO+ &&&&&&",
"&&&&& OO$OOOO%oo@%OOOOOOOO &&&&&",
"&&&&& OOOOOOOO%%%OOOOOOOOO &&&&&",
"&&&& OOOOOOOOOOOOOOOOOOOOOO &&&&",
"&&&& OOOOOOXXXXXXXXXXOOOOOO &&&&",
"&&&& OOOOXXXXXXXXXXXXXXOOOO &&&&",
"&&&&& OOXXXXXXXXXXXXXXXXOO &&&&&",
"&&&&& OOOXXXXXXXXXXXXXXOOO &&&&&",
"&&&&&&   OOOOOOOOOOOOOO   &&&&&&",
"&&&&&&&&&              &&&&&&&&&",
"&&&&&&&&&&&&&&&&&&&&&&&&&&&&&&&&",
"&&&&&&&&&&&&&&&&&&&&&&&&&&&&&&&&",
"&&&&&&&&&&&&&&&&&&&&&&&&&&&&&&&&",
"&&&&&&&&&&&&&&&&&&&&&&&&&&&&&&&&",
"&&&&&&&&&&&&&&&&&&&&&&&&&&&&&&&&",
"&&&&&&&&&&&&&&&&&&&&&&&&&&&&&&&&",
"&&&&&&&&&&&&&&&&&&&&&&&&&&&&&&&&",
"&&&&&&&&&&&&&&&&&&&&&&&&&&&&&&&&"
};
