/* XPM */
static char *_1[] = {
/* columns rows colors chars-per-pixel */
"32 32 7 1 ",
"  c #2F2F2E",
". c #5A5A59",
"X c #646463",
"o c #676767",
"O c gray43",
"+ c gray54",
"@ c None",
/* pixels */
".++++++++++XXXXXX               ",
".OOOOOOOOOOX++++X               ",
".OOOOOOOOOOX+OO+X               ",
".ooooooooooX+OO+X               ",
"...........X++++X               ",
"+++.+++++.+X++++X               ",
"OOO.OOOOO.OX++++X               ",
"OOO.OOOOO.OXXXXXX               ",
"ooo.ooooo.oXO+++X               ",
"...........X++++X               ",
"+++++++++++X++++X               ",
"OOOOOOOOOOOXXXXXX               ",
"OOOOOOOOOOOX+OO+X               ",
"oooooooooooX+OO+X               ",
"...........X++++X               ",
"+++.+++++.+X++++X               ",
"OOO.OOOOO.OX++++X               ",
"OOO.OOOOO.OXXXXXX               ",
"ooo.ooooo.oXO+++X               ",
"...........X++++X               ",
"+++++++++++X++++X               ",
"+++++++++++X++++X               ",
"OOOOOOOOO++X++++X               ",
"ooooooooo++XXXXXX               ",
"ooooooooo++X+OO+X               ",
"ooooooooo++X+OO+X               ",
"ooooooooo++X++++X               ",
"         ++X++++X               ",
"@@@@@@@@ ++XXXXXX               ",
"@@@@@@@@ ++X+++OX               ",
"@@@@@@@@ ++X++++X               ",
"@@@@@@@@ ++X++++X               "
};
