/* XPM */
static char *_[] = {
/* columns rows colors chars-per-pixel */
"32 32 17 1 ",
"  c #060606",
". c gray4",
"X c #0D0B0B",
"o c #101010",
"O c #191717",
"+ c #1E1C1C",
"@ c #211C1C",
"# c #292727",
"$ c #342D2D",
"% c #BE8874",
"& c #D8947C",
"* c #8F9A9C",
"= c #A09898",
"- c #BAB3B3",
"; c #D4CFCF",
": c #DAE8E9",
"> c None",
/* pixels */
">>>>>>>>>>>>>>>>>>>>>>>>>>>>>>>>",
">>>>>>>>>>>>>>>>>>>>>>>>>>>>>>>>",
">>>>>>>>>>>>>>>>>>>>>>>>>>>>>>>>",
">>>>>>>>>>>>>>>>>>>>>>>>>>>>>>>>",
">>>>>>>>>>>>>>>>>>>>>>>>>>>>>>>>",
">>>>>>>>>>>>>>>>>>>>>>>>>>>>>>>>",
">>>>>>>>>>>>>>>>>>>>>>>>>>>>>>>>",
">>>>>>>>>>>>>>>>>>>>>>>>>>>>>>>>",
">>>>>>>>>>>>>>>>>>>>>>>>>>>>>>>>",
">>>>>>>>>>>>>>>>>>>>>>>>>>>>>>>>",
">>>>>>>>>>>>>>>>>>>>>>>>>>>>>>>>",
">>>>>>>>>>>>>>>>>>>>>>>>>>>>>>>>",
">>>>>>>>>>>>>>>>>>>>>>>>>>>>>>>>",
">>>>>>>>>>>>>>>>>>>>>>>>>>>>>>>>",
">>>>>>>>>>>>>>>>>>>>>>>>>>>>>>>>",
">>>>>>>>>>>>>>>>>>>>>>>>>>>>>>>>",
">>>>>>>>>>>>>>>>>>>>>>>>>>>>>>>>",
">>>>>>>>>>>>>>==oooo:::;>>>>>>>>",
">>>>>>>>>>>>>oooooooo;&%;>>>>>>>",
">>>>>>>>>>>>>oooooooo;%%;>>>>>>>",
">>>>>>>>>>>>oo-----ooo;;>>>>>>>>",
">>>>>>>>>>>>o;*;;;*-ooo>>>>>>>>>",
">>>>>>>>>>>>o;;&&;;-ooo$>>>>>>>>",
">>>>>>>>>>>>o;;%%;;-oo$$>>>>>>>>",
">>>>>>>>>>>>>o;;;;-oo$$$@>>>>>>>",
">>>>>>>>>>>>>oo+oooo$$$@@>>>>>>>",
">>>>>>>>>>>>>oooooooo$@@@>>>>>>>",
">>>>>>>>>>>>>o+O##oooo@@@>>>>>>>",
">>>>>>>>>>>>>OOOO##ooo@@>>>>>>>>",
">>>>>>>>>>>>>OOOO###oo@>>>>>>>>>",
">>>>>>>>>>>>>>OOOO###>>>>>>>>>>>",
">>>>>>>>>>>>>>X >>X.>>>>>>>>>>>>"
};
