/* XPM */
static char *StaticScroll[] = {
/* columns rows colors chars-per-pixel */
"32 32 6 1 ",
"  c #6C3B4F",
". c #B8614E",
"X c #F29546",
"o c #FFDAA2",
"O c #F8F8F8",
"+ c None",
/* pixels */
"++++++++++++++++++++++++++++++++",
"++++++++++++++++++++++++++++++++",
"++++++++++++++++++++++++++++++++",
"+++++++++++++++++++OOOOOO+++++++",
"++++++OOOOOOOOOOOOO .... O++++++",
"+++++O    ..       XXXoo O++++++",
"++++O XX. ooXX..XXXXXXXo O++++++",
"++++O X   oXX..XXX    XX.O++++++",
"++++O X. . XX     XXXXXX.O++++++",
"++++O X. . ..XXXX.....XX.O++++++",
"+++++O     X.XXX..XX  XX.O++++++",
"++++++OOOO XX  X   XX.XX O++++++",
"+++++++++O XXXX....X..X. O++++++",
"++++++++O oXXXX.XXXX  X O+++++++",
"++++++++O XX    X   XXX O+++++++",
"++++++++O XXXX..XXXXXX. O+++++++",
"+++++++O oXXX......X X O++++++++",
"+++++++O XX   X     XX O++++++++",
"+++++++O XXXXXX.XXX..X O++++++++",
"+++++++O XX  X..X ..XX O++++++++",
"+++++++O .X   XX   XX. O++++++++",
"+++++++O ..XXXXXXXXX... O+++++++",
"++++++++O ............. O+++++++",
"++++++++O .........     O+++++++",
"+++++++O           oXXXo O++++++",
"++++++O XX. oXXXXXXXXXXX O++++++",
"++++++O X   XXXXXXX..... O++++++",
"++++++O X.  X......     O+++++++",
"++++++O X.  .      OOOOO++++++++",
"+++++++O     OOOOOO+++++++++++++",
"++++++++OOOOO+++++++++++++++++++",
"++++++++++++++++++++++++++++++++"
};
