/* XPM */
static char *StaticBigHealthPotion[] = {
/* columns rows colors chars-per-pixel */
"32 32 13 1 ",
"  c #101E29",
". c #332041",
"X c #6C3B4F",
"o c #50576B",
"O c #AD3E50",
"+ c #B8614E",
"@ c #E1534A",
"# c #F29546",
"$ c #8D87A2",
"% c #FF8B9C",
"& c #BCB7C5",
"* c #F8F8F8",
"= c None",
/* pixels */
"================================",
"================================",
"================================",
"================================",
"================================",
"================================",
"============*******=============",
"===========*X#####X*============",
"===========*X+++++X*============",
"==========*$&X...X&$*===========",
"==========*o$&&&&&$o*===========",
"===========* o&$$o *============",
"===========*o$*&$$o*============",
"==========*o$&*&&&$o*===========",
"=========*o$***&&&%%o*==========",
"=========*o%**%%%%@@o*==========",
"========*o@**%@@@@@@%o*=========",
"========*o@**@@@@%%@@o*=========",
"========* O@@@@%@@%@O *=========",
"========* OO**@@@@@OO *=========",
"=========* O@*@@%@@O *==========",
"=========* OO@@@@OOO *==========",
"==========* OOOOOOO *===========",
"===========*  OOO  *============",
"============**   **=============",
"==============***===============",
"================================",
"================================",
"================================",
"================================",
"================================",
"================================"
};
