/* XPM */
static char *StaticBlueCrystal[] = {
/* columns rows colors chars-per-pixel */
"32 32 6 1 ",
"  c #243F72",
". c #007DC7",
"X c #42CAFD",
"o c #92F4FF",
"O c #F8F8F8",
"+ c None",
/* pixels */
"++++++++++++++++++++++++++++++++",
"++++++++++++++++++++++++++++++++",
"++++++++++++++++++++++++++++++++",
"++++++++++++++++++++++++++++++++",
"++++++++++++++++++++++++++++++++",
"++++++++++++++++++++++++++++++++",
"+++++++++++++++++++OOOOOO+++++++",
"++++++++++++++++++O      O++++++",
"+++++++++++++++++O oooo. O++++++",
"++++++++++++++++O o.oo.X O++++++",
"+++++++++++++++O oXo. XX O++++++",
"++++++++++++++O oXXo  XX O++++++",
"+++++++++++++O oXXo .. X O++++++",
"++++++++++++O oXXo .... O+++++++",
"+++++++++++O oXXo .X.. O++++++++",
"++++++++++O oXXo .XX. O+++++++++",
"+++++++++O oXXo .XX. O++++++++++",
"++++++++O oXXo .XX. O+++++++++++",
"+++++++O oXXo .XX. O++++++++++++",
"++++++O . oo .XX. O+++++++++++++",
"++++++O X.  .XX. O++++++++++++++",
"++++++O X.  .X. O+++++++++++++++",
"++++++O . .. . O++++++++++++++++",
"++++++O  .... O+++++++++++++++++",
"++++++O      O++++++++++++++++++",
"+++++++OOOOOO+++++++++++++++++++",
"++++++++++++++++++++++++++++++++",
"++++++++++++++++++++++++++++++++",
"++++++++++++++++++++++++++++++++",
"++++++++++++++++++++++++++++++++",
"++++++++++++++++++++++++++++++++",
"++++++++++++++++++++++++++++++++"
};
