/* XPM */
static char *StaticCoin[] = {
/* columns rows colors chars-per-pixel */
"32 32 5 1 ",
"  c #6C3B4F",
". c #FFCE00",
"X c #F29546",
"o c #FBFCAA",
"O c None",
/* pixels */
"OOOOOOOOOOOOOOOOOOOOOOOOOOOOOOOO",
"OOOOOOOOOOOOooooooooOOOOOOOOOOOO",
"OOOOOOOOOOoo        ooOOOOOOOOOO",
"OOOOOOOOoo  oooooooo  ooOOOOOOOO",
"OOOOOOOo  oo........oo  oOOOOOOO",
"OOOOOOo oo..XXXXXXXX..oo oOOOOOO",
"OOOOOo o..XX........XX..o oOOOOO",
"OOOOo o..X............X..o oOOOO",
"OOOo o..X..............X..o oOOO",
"OOOo ..X.......o.o......X.. oOOO",
"OOo o..X......o.o.o.....X..o oOO",
"OOo ..X......o.....o.....X.. oOO",
"Oo o..X......X..XX.X.....X..o oO",
"Oo ..........X.X..XX......... oO",
"Oo ..........X..o............ oO",
"Oo .....XX....X..o....XX..... oO",
"Oo .....oo.....X..o...oo..... oO",
"Oo .............X..o......... oO",
"Oo ..........oo..X.X......... oO",
"Oo X..o......X.ooX.X.....o..X oO",
"OOo ..o......X.....X.....o.. oOO",
"OOo X..o......X.X.X.....o..X oOO",
"OOOo ..o.......X.X......o.. oOOO",
"OOOo X..o..............o..X oOOO",
"OOOOo X..o............o..X oOOOO",
"OOOOOo X..oo........oo..X oOOOOO",
"OOOOOOo XX..oooooooo..XX oOOOOOO",
"OOOOOOOo  XX........XX  oOOOOOOO",
"OOOOOOOOoo  XXXXXXXX  ooOOOOOOOO",
"OOOOOOOOOOoo        ooOOOOOOOOOO",
"OOOOOOOOOOOOooooooooOOOOOOOOOOOO",
"OOOOOOOOOOOOOOOOOOOOOOOOOOOOOOOO"
};
