/* XPM */
static char *StaticApple[] = {
/* columns rows colors chars-per-pixel */
"32 32 14 1 ",
"  c #101E29",
". c #005F1B",
"X c #3F7E00",
"o c #332041",
"O c #6C3B4F",
"+ c #AD3E50",
"@ c #B8614E",
"# c #E1534A",
"$ c #6CA800",
"% c #F29546",
"& c #BDD156",
"* c #FF8B9C",
"= c #F8F8F8",
"- c None",
/* pixels */
"--------------------------------",
"--------------------------------",
"--------------------------------",
"--------------------------------",
"--------------------------------",
"--------------------------------",
"----------------===-------------",
"------------====...=------------",
"----------==ooo.&&.===----------",
"---------=OOo@%o$X OOO=---------",
"--------=O*++o@%o ++**O=--------",
"-------=O*##++o@o+O****O=-------",
"-------=O####+o@oO**##*O=-------",
"------=O#**#+OOOO**####*O=------",
"------=O#**##*****#####+O=------",
"------=O###############+O=------",
"------=O#**############+o=------",
"------=O#**############+o=------",
"------=O#**###########++o=------",
"------=O#**###########++o=------",
"-------=O#**#########++o=-------",
"-------=O##**########++o=-------",
"--------=o+#########++o=--------",
"--------=o++###++##+++o=--------",
"---------=o++++++++++o=---------",
"----------=o+++oo+++o=----------",
"-----------=ooo==ooo=-----------",
"------------===--===------------",
"--------------------------------",
"--------------------------------",
"--------------------------------",
"--------------------------------"
};
