/* XPM */
static char *StaticChickenThigh[] = {
/* columns rows colors chars-per-pixel */
"32 32 9 1 ",
"  c #332041",
". c #6C3B4F",
"X c #50576B",
"o c #B8614E",
"O c #F29546",
"+ c #8D87A2",
"@ c #BCB7C5",
"# c #F8F8F8",
"$ c None",
/* pixels */
"$$$$$$$$$$$$$$$$$$$$$$$$$$$$$$$$",
"$$$$$$$$$$$$$$$$$$$$$$$$$$$$$$$$",
"$$$$$$$$$$$$$$$$$$$$$$$$$$$$$$$$",
"$$$$$$$$$$$$$$$$$$$$$$$$$$$$$$$$",
"$$$$$$$$$$$$$$$$$$$$$$$$$$$$$$$$",
"$$$$$$$$$$$$$$$$$$$$$$$$$$$$$$$$",
"$$$$$$$$$$$$$$$$$$$$$$$$$$$$$$$$",
"$$$$$$$$$$####$$$$$$$$$$$$$$$$$$",
"$$$$$$$$$#....##$$$$$$$$$$$$$$$$",
"$$$$$$$$#.oOOo. #$$$$$$$$$$$$$$$",
"$$$$$$$#.oOOOOoo #$$$$$$$$$$$$$$",
"$$$$$$$#.OOOOOOo. #$$$$$$$$$$$$$",
"$$$$$$$#.OOOOOOoo #$$$$$$$$$$$$$",
"$$$$$$$#.oOOOOooo. #$$$$$$$$$$$$",
"$$$$$$$$#.oOOoooo. #$$$$$$$$$$$$",
"$$$$$$$$# oooooo... #$$$$$$$$$$$",
"$$$$$$$$$# .ooo.... #$$$$$$$$$$$",
"$$$$$$$$$$#  ....... #$$$$$$$$$$",
"$$$$$$$$$$$##  .... +#$$$$$$$$$$",
"$$$$$$$$$$$$$##  . ##+###$$$$$$$",
"$$$$$$$$$$$$$$$## X@##+++#$$$$$$",
"$$$$$$$$$$$$$$$$$##X@####X#$$$$$",
"$$$$$$$$$$$$$$$$$$$#X###@X#$$$$$",
"$$$$$$$$$$$$$$$$$$$#X#@@X#$$$$$$",
"$$$$$$$$$$$$$$$$$$$#X##X#$$$$$$$",
"$$$$$$$$$$$$$$$$$$$$#XX#$$$$$$$$",
"$$$$$$$$$$$$$$$$$$$$$##$$$$$$$$$",
"$$$$$$$$$$$$$$$$$$$$$$$$$$$$$$$$",
"$$$$$$$$$$$$$$$$$$$$$$$$$$$$$$$$",
"$$$$$$$$$$$$$$$$$$$$$$$$$$$$$$$$",
"$$$$$$$$$$$$$$$$$$$$$$$$$$$$$$$$",
"$$$$$$$$$$$$$$$$$$$$$$$$$$$$$$$$"
};
