/* XPM */
static char *StaticHeart[] = {
/* columns rows colors chars-per-pixel */
"32 32 7 1 ",
"  c #332041",
". c #6C3B4F",
"X c #AD3E50",
"o c #E1534A",
"O c #FF8B9C",
"+ c #F8F8F8",
"@ c None",
/* pixels */
"@@@@@@@@@@@@@@@@@@@@@@@@@@@@@@@@",
"@@@@@@@@@@@@@@@@@@@@@@@@@@@@@@@@",
"@@@@@@@@@@@@@@@@@@@@@@@@@@@@@@@@",
"@@@@@@@@@@@@@@@@@@@@@@@@@@@@@@@@",
"@@@@@@@@@@@@@@@@@@@@@@@@@@@@@@@@",
"@@@@@@@@@@@@@@@@@@@@@@@@@@@@@@@@",
"@@@@@@@@@@@@@@@@@@@@@@@@@@@@@@@@",
"@@@@@@@@@+++++@@@@+++++@@@@@@@@@",
"@@@@@@@++     +@@+     ++@@@@@@@",
"@@@@@@+  ooooo ++ ooooo  +@@@@@@",
"@@@@@+ ooXXXXX.  .XXXXXoo +@@@@@",
"@@@@+ oXXooooXX..XXooooXXo +@@@@",
"@@@@+ XXooooooXXXXoooOOoXX +@@@@",
"@@@@+ XooooooooXXooooOOooX +@@@@",
"@@@@+ XooooooooooooooooooX +@@@@",
"@@@@+ XooooooooooooooOOooX +@@@@",
"@@@@+ XXooooooooooooOOOoXX +@@@@",
"@@@@+ .XXoooooooooooOOoXX. +@@@@",
"@@@@@+ .XXooooooooooooXX. +@@@@@",
"@@@@@@+ .XXooooooooooXX. +@@@@@@",
"@@@@@@@+ .XXooooooooXX. +@@@@@@@",
"@@@@@@@@+ .XXooooooXX. +@@@@@@@@",
"@@@@@@@@@+ .XXooooXX. +@@@@@@@@@",
"@@@@@@@@@@+ .XXooXX. +@@@@@@@@@@",
"@@@@@@@@@@@+ .XXXX. +@@@@@@@@@@@",
"@@@@@@@@@@@@+ .XX. +@@@@@@@@@@@@",
"@@@@@@@@@@@@@+ .. +@@@@@@@@@@@@@",
"@@@@@@@@@@@@@@+  +@@@@@@@@@@@@@@",
"@@@@@@@@@@@@@@@++@@@@@@@@@@@@@@@",
"@@@@@@@@@@@@@@@@@@@@@@@@@@@@@@@@",
"@@@@@@@@@@@@@@@@@@@@@@@@@@@@@@@@",
"@@@@@@@@@@@@@@@@@@@@@@@@@@@@@@@@"
};
