/* XPM */
static char *StaticSmallManaPotion[] = {
/* columns rows colors chars-per-pixel */
"32 32 13 1 ",
"  c #101E29",
". c #332041",
"X c #6C3B4F",
"o c #50576B",
"O c #B8614E",
"+ c #F29546",
"@ c #007DC7",
"# c #42CAFD",
"$ c #8D87A2",
"% c #BCB7C5",
"& c #92F4FF",
"* c #F8F8F8",
"= c None",
/* pixels */
"================================",
"================================",
"================================",
"================================",
"================================",
"================================",
"=============******=============",
"============*X++++X*============",
"============*XOOOOX*============",
"===========*$%X..X%$*===========",
"===========*o$%%%%$o*===========",
"============* o%$o *============",
"============*o$%$$o*============",
"===========*o$%%%%$o*===========",
"===========*o%*%%%&o*===========",
"===========*o%*&&&#o*===========",
"===========*o&*####o*===========",
"===========*o####&#o*===========",
"===========*o#*####o*===========",
"===========* @##&#@ *===========",
"===========* @@##@@ *===========",
"============* @@@@ *============",
"=============*    *=============",
"==============****==============",
"================================",
"================================",
"================================",
"================================",
"================================",
"================================",
"================================",
"================================"
};
