/* XPM */
static char *StaticGreenCrystal[] = {
/* columns rows colors chars-per-pixel */
"32 32 7 1 ",
"  c #101E29",
". c #00635C",
"X c #3FC778",
"o c #A1EF79",
"O c #00A383",
"+ c #F8F8F8",
"@ c None",
/* pixels */
"@@@@@@@@@@@@@@@@@@@@@@@@@@@@@@@@",
"@@@@@@@@@@@@@@@@@@@@@@@@@@@@@@@@",
"@@@@@@@@@@@@@@@@@@@@@@@@@@@@@@@@",
"@@@@@@@@@@@@@@@@@@@@@@@@@@@@@@@@",
"@@@@@@@@@@@@@@@@@@@@@@@@@@@@@@@@",
"@@@@@@@@@@@@@@@@@@@@@@@@@@@@@@@@",
"@@@@@@@@@@@@@@@@@@@@@@@@@@@@@@@@",
"@@@@@@@@@@@@++++++++@@@@@@@@@@@@",
"@@@@@@@@@@@+........+@@@@@@@@@@@",
"@@@@@@@@@@+.o+o++o+o.+@@@@@@@@@@",
"@@@@@@@@@+.oXOXXXXOXo.+@@@@@@@@@",
"@@@@@@@@+.oXXOXXXXOXXo.+@@@@@@@@",
"@@@@@@@+.oXXOOXXXXOOXXo.+@@@@@@@",
"@@@@@@@+.+OOOOOOOOOOOO+.+@@@@@@@",
"@@@@@@@+.+XXXOo++o.XXX+.+@@@@@@@",
"@@@@@@@+.oXXXOXXXX.XXXo.+@@@@@@@",
"@@@@@@@+.oXXXOXXXX.OXXo.+@@@@@@@",
"@@@@@@@+.oXXXOXXXX.OOXo.+@@@@@@@",
"@@@@@@@+.oXXXX....OOOOo.+@@@@@@@",
"@@@@@@@+ .O...OOOO...O. +@@@@@@@",
"@@@@@@@+ OOOO.XXXX.OOOO +@@@@@@@",
"@@@@@@@@+ OOOOXXXXOOOO +@@@@@@@@",
"@@@@@@@@@+ OOOXXXXOOO +@@@@@@@@@",
"@@@@@@@@@@+ O.o++o.O +@@@@@@@@@@",
"@@@@@@@@@@@+        +@@@@@@@@@@@",
"@@@@@@@@@@@@++++++++@@@@@@@@@@@@",
"@@@@@@@@@@@@@@@@@@@@@@@@@@@@@@@@",
"@@@@@@@@@@@@@@@@@@@@@@@@@@@@@@@@",
"@@@@@@@@@@@@@@@@@@@@@@@@@@@@@@@@",
"@@@@@@@@@@@@@@@@@@@@@@@@@@@@@@@@",
"@@@@@@@@@@@@@@@@@@@@@@@@@@@@@@@@",
"@@@@@@@@@@@@@@@@@@@@@@@@@@@@@@@@"
};
