/* XPM */
static char *tile155[] = {
/* columns rows colors chars-per-pixel */
"32 32 4 1 ",
"  c #54443B",
". c #4F4038",
"X c #645045",
"o c white",
/* pixels */
"                         ... XXX",
"                    XX       .XX",
"                    ..       XXX",
"                          XXXXXX",
"                          .XXXXX",
"                 XXXXXX    ..XXX",
"                 ..XXXXXX    ..X",
"                   ......    XXX",
"                           XXXXX",
"                XXXX       XXXXX",
"                XXX.       ....X",
"                ...          XXX",
"                             XXX",
"                      XXXX  XXXX",
"                    XXXXXX  .XXX",
"                    ..XXX.   .XX",
"                      ...     XX",
"                             XXX",
"                           XXXXX",
"                           .XXXX",
"                       XX   ..XX",
"                       ..     .X",
"                               X",
"                    XXXX      XX",
"          XX        .XX.    XXXX",
"         XXXX    XX  ..     .XXX",
"  X      ...XX   ..          .XX",
"  .  XXXXX  ..                XX",
"  XXXXXXXX     XX       XX    .X",
"  XXXXX...     XXXX    XXXX  XXX",
"XXXXXXXX    XXXXXXXXX XXXXXXXXXX",
"XXXXXXXXXXXXXXXXXXXXXXXXXXXXXXXX"
};
