/* XPM */
static char *tile157[] = {
/* columns rows colors chars-per-pixel */
"32 32 4 1 ",
"  c #645045",
". c #54443B",
"X c #4F4038",
"o c white",
/* pixels */
"   .............................",
"    ............................",
"        ........................",
"      XX........................",
"    XX..........................",
"     ...........................",
"   XX...........................",
"    ..  ........................",
"   X.   ........................",
" XX..XXX........................",
"  ..............................",
"     .. ........................",
"     ..X........................",
"    X...........................",
"    ............................",
"   X............................",
"  X...     .....................",
"  ....     .....................",
"    ..X   X.....................",
"    ...XXX......................",
"     ......  ...................",
"   XX......XX......   ..........",
"  X................XXX..........",
"  ..........     ...............",
"    .....        .......    ....",
"     ....X    XXX.  ...      ...",
"    X.....XXXX....X ...XXX  X...",
"   X...............X......XX....",
" XX..  ....     ................",
"  .    ...      ..     ...   ...",
"               ..       ..    ..",
"                                "
};
