/* XPM */
static char *tile170[] = {
/* columns rows colors chars-per-pixel */
"32 32 4 1 ",
"  c #54443B",
". c #4F4038",
"X c #645045",
"o c white",
/* pixels */
"                         .XX  .X",
"                          ..  XX",
"                            XXXX",
"                            .XXX",
"                             ...",
"                        XXX     ",
"                       XXXXXX   ",
"                       .XXXX.   ",
"                        ....  XX",
"                             XXX",
"                            XXXX",
"                            ..XX",
"                              .X",
"                         XXXX  .",
"                         XXX.  X",
"                         ...  XX",
"                             XXX",
"                      XX     .XX",
"                    XXXXX   XXXX",
"                    ..XXXX XXXXX",
"                      .... .XXXX",
"                            .XXX",
"                        XXX  .XX",
"                      XXXXX   XX",
"                      .XXX.   XX",
"                       ...   XXX",
"                            XXXX",
"                            .XXX",
"                             .XX",
"                              .X",
"                              XX",
"                              .X"
};
