/* XPM */
static char *tile173[] = {
/* columns rows colors chars-per-pixel */
"32 32 4 1 ",
"  c #645045",
". c #4F4038",
"X c #54443B",
"o c white",
/* pixels */
"                                ",
"                                ",
"                                ",
"         ....                   ",
"     ....XXXX            ....   ",
"        XXX            ..XXXX   ",
"                      .XXXXXXX  ",
"                                ",
"                                ",
"                                ",
"                                ",
"                                ",
"                                ",
"                                ",
"                                ",
"                XXXXXXXXXX      ",
"                                ",
"                                ",
"  ..........                    ",
"     XXXXXX                     ",
"                                ",
"                                ",
"                                ",
"                   .....        ",
"                   XXXX         ",
"                                ",
"                                ",
"                                ",
"                                ",
"                                ",
"                                ",
"                                "
};
