/* XPM */
static char *_1[] = {
/* columns rows colors chars-per-pixel */
"32 32 7 1 ",
"  c #2F2F2E",
". c #646463",
"X c gray54",
"o c gray43",
"O c #5A5A59",
"+ c #676767",
"@ c white",
/* pixels */
"                                ",
"                                ",
"                                ",
"                                ",
"                                ",
"                                ",
"                                ",
"                                ",
"                                ",
"                                ",
"                                ",
"                                ",
"                                ",
"                                ",
"                                ",
"                                ",
"                                ",
"                                ",
"                                ",
".... ...... ....                ",
"XXXX.XXXXXX.XXXX.               ",
"XXXX.XXXXXX.XXXX.               ",
"XooX.XXXXXX.ooXX.               ",
"ooooOoooooo.ooXX.               ",
"ooooOoooooo.XXXX.               ",
"++++O++++++.....O               ",
"OOOOOOOOOOO.XXXo.               ",
"XXXOXXXXOXX.XXXX.               ",
"oooOooooOoo.XXXX.               ",
"oooOooooOoo.XXXX.               ",
"+++O++++O++.oXXX.               ",
"OOOOOOOOOOO.XXXX.               "
};
