/* XPM */
static char *_2[] = {
/* columns rows colors chars-per-pixel */
"32 32 7 1 ",
"  c #2F2F2E",
". c #5A5A59",
"X c #646463",
"o c #676767",
"O c gray43",
"+ c gray54",
"@ c None",
/* pixels */
"               X++++X++ @@@@@@@@",
"               X++++X++ @@@@@@@@",
"               X++++X++ @@@@@@@@",
"               XXXXXX++ @@@@@@@@",
"               X++++X++ @@@@@@@@",
"               XO+++X++ @@@@@@@@",
"               XO+++X++ @@@@@@@@",
"               X++++X++ @@@@@@@@",
"               X++++X++ @@@@@@@@",
"               X++++X++ @@@@@@@@",
"               XXXXXX++ @@@@@@@@",
"               XO+++X++ @@@@@@@@",
"               X++++X++ @@@@@@@@",
"               X++++X++ @@@@@@@@",
"               X++++X++ @@@@@@@@",
"               X+++OX++ @@@@@@@@",
"               X++++X++ @@@@@@@@",
"               XXXXXX++ @@@@@@@@",
"               X++++X++ @@@@@@@@",
"XXXX XXXXXXX XXX++++X++ @@@@@@@@",
"+OO+X+++++++X++++OO+X++ @@@@@@@@",
"+OO+X+++++++X++++OO+X++ @@@@@@@@",
"++++X+++++++X+++++++X++ @@@@@@@@",
"OOOO.OOOOOOO.OOOOOOO.++ @@@@@@@@",
"OOOO.OOOOOOO.OOOOOOO.++ @@@@@@@@",
"oooo.ooooooo.ooooooo.++ @@@@@@@@",
".....................++ @@@@@@@@",
"+++.+++++.+++++.++++.++ @@@@@@@@",
"OOO.OOOOO.OOOOO.OOOO.++ @@@@@@@@",
"OOO.OOOOO.OOOOO.OOOO.++ @@@@@@@@",
"ooo.ooooo.ooooo.oooo.++ @@@@@@@@",
".....................++ @@@@@@@@"
};
