/* XPM */
static char *_2[] = {
/* columns rows colors chars-per-pixel */
"32 32 7 1 ",
"  c #2F2F2E",
". c #646463",
"X c gray54",
"o c gray43",
"O c #5A5A59",
"+ c #676767",
"@ c white",
/* pixels */
"                                ",
"                                ",
"                                ",
"                                ",
"                                ",
"                                ",
"                                ",
"                                ",
"                                ",
"                                ",
"                                ",
"                                ",
"                                ",
"                                ",
"                                ",
"                                ",
"                                ",
"                                ",
"                                ",
"                .... ....... ...",
"               .XXXX.XXXXXXX.XXX",
"               .XXoX.XXXXXXX.XXX",
"               .XXXX.XXXXXXX.XXX",
"               .XXXX.oooooooOooo",
"               .XXXX.oooooooOooo",
"               .++++.+++++++O+++",
"               .oXXX.OOOOOOOOOOO",
"               .XXXX.XXOXXXXXOXX",
"               .XXXX.ooOoooooOoo",
"               .XXXX.ooOoooooOoo",
"               .XXXo.++O+++++O++",
"               .XXXX.OOOOOOOOOOO"
};
