/* XPM */
static char * bottom_right_xpm[] = {
"32 32 7 1",
" 	c None",
".	c #2F2F2E",
"+	c #646463",
"@	c #8A8A8A",
"#	c #6E6E6E",
"$	c #5A5A59",
"%	c #515150",
"...............+@@@@+@@.        ",
"...............++++++@@.        ",
"...............+#@@@+@@.        ",
"...............+@@@@+@@.        ",
"...............+@@@@+@@.        ",
"...............+@@@@+@@.        ",
"...............+@@@#+@@.        ",
"...............+@@@@+@@.        ",
"...............++++++@@.        ",
"...............+@@@@+@@.        ",
"...............+@@@@+@@.........",
"...............+@##@++++++++++++",
"...............+@##@+@@@@@@@+@@@",
"...............+@@@@+@@@@@@@+@@@",
"...............+@@@@+@@@@@@@+@@@",
"...............$$$$$$$$$$$$$$$$$",
"...............$$$$$$$$$$$$$$$$$",
"...............%%%%%%%%%%%%%%%%%",
"................................",
"................................",
"................................",
"................................",
"................................",
"................................",
"................................",
"................................",
"................................",
"................................",
"................................",
"................................",
"................................",
"................................"};
