/* XPM */
static char *right[] = {
/* columns rows colors chars-per-pixel */
"32 32 5 1 ",
"  c #2F2F2E",
". c #646463",
"X c gray43",
"o c gray54",
"O c None",
/* pixels */
"               .oooo.oo OOOOOOOO",
"               .oooo.oo OOOOOOOO",
"               ......oo OOOOOOOO",
"               .oXXo.oo OOOOOOOO",
"               .oXXo.oo OOOOOOOO",
"               .oooo.oo OOOOOOOO",
"               .oooo.oo OOOOOOOO",
"               .oooo.oo OOOOOOOO",
"               ......oo OOOOOOOO",
"               .XooX.oo OOOOOOOO",
"               .Xooo.oo OOOOOOOO",
"               .oooo.oo OOOOOOOO",
"               .oooo.oo OOOOOOOO",
"               .oooo.oo OOOOOOOO",
"               ......oo OOOOOOOO",
"               .oXXo.oo OOOOOOOO",
"               .oXXo.oo OOOOOOOO",
"               .oooo.oo OOOOOOOO",
"               .oooo.oo OOOOOOOO",
"               ......oo OOOOOOOO",
"               .oXoo.oo OOOOOOOO",
"               .oooo.oo OOOOOOOO",
"               .oooo.oo OOOOOOOO",
"               ......oo OOOOOOOO",
"               .oooo.oo OOOOOOOO",
"               .Xooo.oo OOOOOOOO",
"               .Xooo.oo OOOOOOOO",
"               .oooo.oo OOOOOOOO",
"               .oooo.oo OOOOOOOO",
"               .oooo.oo OOOOOOOO",
"               ......oo OOOOOOOO",
"               .oooo.oo OOOOOOOO"
};
