/* XPM */
static char *left[] = {
/* columns rows colors chars-per-pixel */
"32 32 5 1 ",
"  c #2F2F2E",
". c #646463",
"X c gray43",
"o c gray54",
"O c None",
/* pixels */
"OOOOOOOO oo.oooo.               ",
"OOOOOOOO oo.oooo.               ",
"OOOOOOOO oo......               ",
"OOOOOOOO oo.oXXo.               ",
"OOOOOOOO oo.oXXo.               ",
"OOOOOOOO oo.oooo.               ",
"OOOOOOOO oo.oooo.               ",
"OOOOOOOO oo.oooo.               ",
"OOOOOOOO oo......               ",
"OOOOOOOO oo.XoXX.               ",
"OOOOOOOO oo.ooXX.               ",
"OOOOOOOO oo.oooo.               ",
"OOOOOOOO oo.oooo.               ",
"OOOOOOOO oo.oooo.               ",
"OOOOOOOO oo......               ",
"OOOOOOOO oo.oXXo.               ",
"OOOOOOOO oo.oXXo.               ",
"OOOOOOOO oo.oooo.               ",
"OOOOOOOO oo.oooo.               ",
"OOOOOOOO oo......               ",
"OOOOOOOO oo.ooXo.               ",
"OOOOOOOO oo.oooo.               ",
"OOOOOOOO oo.oooo.               ",
"OOOOOOOO oo......               ",
"OOOOOOOO oo.oooo.               ",
"OOOOOOOO oo.oooX.               ",
"OOOOOOOO oo.oooX.               ",
"OOOOOOOO oo.oooo.               ",
"OOOOOOOO oo.oooo.               ",
"OOOOOOOO oo.oooo.               ",
"OOOOOOOO oo......               ",
"OOOOOOOO oo.oooo.               "
};
