/* XPM */
static char *top_right[] = {
/* columns rows colors chars-per-pixel */
"32 32 7 1 ",
"  c #2F2F2E",
". c #515150",
"X c #5A5A59",
"o c #646463",
"O c gray43",
"+ c gray54",
"@ c None",
/* pixels */
"@@@@@@@@@@@@@@@@@@@@@@@@@@@@@@@@",
"@@@@@@@@@@@@@@@@@@@@@@@@@@@@@@@@",
"@@@@@@@@@@@@@@@@@@@@@@@@@@@@@@@@",
"@@@@@@@@@@@@@@@@@@@@@@@@@@@@@@@@",
"@@@@@@@@@@@@@@@@@@@@@@@@@@@@@@@@",
"@@@@@@@@@@@@@@@@@@@@@@@@@@@@@@@@",
"@@@@@@@@@@@@@@@@@@@@@@@@@@@@@@@@",
"@@@@@@@@@@@@@@@@@@@@@@@@@@@@@@@@",
"@@@@@@@@@@@@@@@@@@@@@@@@@@@@@@@@",
"@@@@@@@@@@@@@@@@@@@@@@@@@@@@@@@@",
"    @       @        @@@@@@@@@@@",
"oooo ooooooo oooooooo @@@@@@@@@@",
"++++o+++++++o+++++++o @@@@@@@@@@",
"++++o+++++++o+++++O+o @@@@@@@@@@",
"+OO+o+++++++o+++++++o @@@@@@@@@@",
"XXXXXXXXXXXXXXX+++++o @@@@@@@@@@",
"XXXXXXXXXXXXXXXoooooo @@@@@@@@@@",
"...............oO+++o @@@@@@@@@@",
"               o++++o @@@@@@@@@@",
"               o++++o @@@@@@@@@@",
"               o++++o @@@@@@@@@@",
"               o+++Oo @@@@@@@@@@",
"               o++++o @@@@@@@@@@",
"               oooooo @@@@@@@@@@",
"               o++++o @@@@@@@@@@",
"               oO+++o @@@@@@@@@@",
"               oO+++o  @@@@@@@@@",
"               o++++o++ @@@@@@@@",
"               o+O++o++ @@@@@@@@",
"               o++++o++ @@@@@@@@",
"               o++++o++ @@@@@@@@",
"               o+++Oo++ @@@@@@@@"
};
