/* XPM */
static char *top_left[] = {
/* columns rows colors chars-per-pixel */
"32 32 7 1 ",
"  c #2F2F2E",
". c #515150",
"X c #5A5A59",
"o c #646463",
"O c gray43",
"+ c gray54",
"@ c None",
/* pixels */
"@@@@@@@@@@@@@@@@@@@@@@@@@@@@@@@@",
"@@@@@@@@@@@@@@@@@@@@@@@@@@@@@@@@",
"@@@@@@@@@@@@@@@@@@@@@@@@@@@@@@@@",
"@@@@@@@@@@@@@@@@@@@@@@@@@@@@@@@@",
"@@@@@@@@@@@@@@@@@@@@@@@@@@@@@@@@",
"@@@@@@@@@@@@@@@@@@@@@@@@@@@@@@@@",
"@@@@@@@@@@@@@@@@@@@@@@@@@@@@@@@@",
"@@@@@@@@@@@@@@@@@@@@@@@@@@@@@@@@",
"@@@@@@@@@@@@@@@@@@@@@@@@@@@@@@@@",
"@@@@@@@@@@@@@@@@@@@@@@@@@@@@@@@@",
"@@@@@@@@@@@        @       @    ",
"@@@@@@@@@@ oooooooo ooooooo oooo",
"@@@@@@@@@@ o+++++++o+++++++o++++",
"@@@@@@@@@@ o++OO+++o+++++++o++O+",
"@@@@@@@@@@ o++OO+++o+++++++o++++",
"@@@@@@@@@@ o+++++XXXXXXXXXXXXXXX",
"@@@@@@@@@@ ooooooXXXXXXXXXXXXXXX",
"@@@@@@@@@@ o+++Oo...............",
"@@@@@@@@@@ o++++o               ",
"@@@@@@@@@@ o++++o               ",
"@@@@@@@@@@ o++++o               ",
"@@@@@@@@@@ oO+++o               ",
"@@@@@@@@@@ o++++o               ",
"@@@@@@@@@@ oooooo               ",
"@@@@@@@@@@ o++++o               ",
"@@@@@@@@@@ o+++Oo               ",
"@@@@@@@@@  o+++Oo               ",
"@@@@@@@@ ++o++++o               ",
"@@@@@@@@ ++o++O+o               ",
"@@@@@@@@ ++o++++o               ",
"@@@@@@@@ ++o++++o               ",
"@@@@@@@@ ++oO+++o               "
};
